<svg width="322" height="43" viewBox="0 0 322 43" fill="none" xmlns="http://www.w3.org/2000/svg">
<path d="M13.7144 7.72461H14.1538C15.7489 7.72461 17.5067 8.29427 19.4272 9.43359C20.4689 10.3776 21.1037 10.8496 21.3315 10.8496H21.6245C21.8849 10.6868 22.0151 10.5078 22.0151 10.3125V10.2148L21.771 9.48242C21.771 9.35221 21.8849 9.27083 22.1128 9.23828C22.3081 9.30339 22.4871 9.43359 22.6499 9.62891H22.7476V9.48242C22.7476 9.12435 22.5034 8.73372 22.0151 8.31055C22.1453 8.21289 22.4871 8.16406 23.0405 8.16406C23.1707 8.16406 23.7567 8.48958 24.7983 9.14062C25.0262 9.14062 25.1401 9.25456 25.1401 9.48242V14.0723C25.1401 16.2207 24.9774 17.4577 24.6519 17.7832L24.603 17.9297L24.7495 18.125V18.1738C24.7495 18.6621 24.0334 18.9062 22.6011 18.9062C22.2756 19.069 22.064 19.1504 21.9663 19.1504H21.771C21.771 18.6296 21.3966 17.7018 20.6479 16.3672C20.0946 14.2188 19.5737 12.9492 19.0854 12.5586C18.5646 11.9401 17.0998 11.4355 14.6909 11.0449L13.2749 10.8984L11.3706 11.0938L11.0288 10.752C10.4429 10.8171 9.4012 11.5169 7.90381 12.8516L7.80615 13.2422V13.3398H8.00146C9.3361 12.2331 10.2964 11.5332 10.8823 11.2402V11.3379C10.1011 12.1842 8.66878 13.2747 6.58545 14.6094C5.70654 15.2604 5.03923 16.1556 4.5835 17.2949C3.76969 19.1504 3.36279 20.9733 3.36279 22.7637C3.36279 25.8561 3.73714 28.1022 4.48584 29.502C5.78792 33.0501 7.28532 35.5729 8.97803 37.0703C11.159 38.2747 13.2261 38.877 15.1792 38.877H15.9604C16.937 38.877 17.995 38.5189 19.1343 37.8027C19.5249 37.054 20.3875 36.1426 21.7222 35.0684C22.8289 34.1895 23.3823 33.4733 23.3823 32.9199V32.7734L23.3335 31.4551C23.3335 31.3574 23.5288 31.1784 23.9194 30.918C23.9194 30.7878 24.0008 30.6738 24.1636 30.5762H24.3101L25.4819 30.7715H26.312C26.5724 30.7715 26.7026 30.9993 26.7026 31.4551C27.0282 32.9525 27.1909 34.0755 27.1909 34.8242C27.1909 36.4844 26.9793 37.8516 26.5562 38.9258V39.0723L26.605 39.4141L26.3608 39.8047V39.9023C26.3608 39.9674 26.6375 40.0488 27.1909 40.1465V40.2441L23.9683 41.8066H23.8706C23.3498 41.123 22.9429 40.3255 22.6499 39.4141L22.6011 39.3652C22.1779 39.528 21.4455 39.9349 20.4038 40.5859C17.8322 41.6602 16.2534 42.1973 15.6675 42.1973L12.7378 41.3184L12.1519 41.2207H11.8589L11.2241 41.416C10.4754 41.416 9.271 41.0742 7.61084 40.3906C6.2762 40.0651 5.13688 39.1699 4.19287 37.7051C1.91423 34.4173 0.774902 31.8783 0.774902 30.0879C0.481934 28.916 0.335449 28.0208 0.335449 27.4023C0.368001 27.0768 0.57959 26.9141 0.970215 26.9141L1.06787 27.3535V27.5977H1.26318L1.4585 27.4512V27.2559C1.4585 26.8327 1.08415 26.5397 0.335449 26.377C0.237793 26.377 0.172689 24.6029 0.140137 21.0547C0.140137 20.2734 0.57959 18.8249 1.4585 16.709C1.5236 16.709 1.60498 16.237 1.70264 15.293C1.83285 15.2604 1.96305 14.8861 2.09326 14.1699C3.06982 13.0632 4.27425 12.0378 5.70654 11.0938C6.32503 10.5078 7.26904 9.93815 8.53857 9.38477C10.98 8.27799 12.7052 7.72461 13.7144 7.72461ZM12.0542 8.79883V8.94531H12.1519C12.575 8.91276 12.7866 8.8151 12.7866 8.65234L12.6401 8.60352H12.5913C12.2658 8.60352 12.0868 8.66862 12.0542 8.79883ZM15.2769 8.60352H15.228V8.75L16.0093 8.89648H16.1069L16.2046 8.75C16.2046 8.65234 15.8953 8.60352 15.2769 8.60352ZM7.85498 10.3613V10.459H7.90381C8.45719 10.3288 9.09196 10.0195 9.80811 9.53125V9.48242L9.71045 9.43359H9.66162C8.94548 9.5638 8.34326 9.87305 7.85498 10.3613ZM14.9839 9.92188C14.9839 10.0521 15.6838 10.2311 17.0835 10.459L17.3276 10.6543H17.6694L17.8159 10.459V10.3613C17.4904 10.3613 17.1486 10.1986 16.7905 9.87305C16.172 9.61263 15.7326 9.48242 15.4722 9.48242C15.1466 9.48242 14.9839 9.62891 14.9839 9.92188ZM20.7944 11.3379H20.6479V11.4355C20.9084 11.8262 21.1525 12.0215 21.3804 12.0215H21.4292L21.6245 11.875V11.8262C21.3315 11.5007 21.0549 11.3379 20.7944 11.3379ZM7.3667 12.3633H7.51318C7.64339 12.3307 7.74105 12.2493 7.80615 12.1191H7.7085C7.57829 12.1191 7.46436 12.2005 7.3667 12.3633ZM6.82959 12.998H7.0249L7.22021 12.8516V12.6562C6.9598 12.6562 6.82959 12.7702 6.82959 12.998ZM21.3804 12.8516L21.2827 12.998V13.0957L21.4292 13.1934L21.6245 12.998L21.4292 12.8516H21.3804ZM3.55811 14.1699C3.94873 14.1699 4.22542 14.0234 4.38818 13.7305V13.584H4.19287C3.86735 13.584 3.65576 13.7793 3.55811 14.1699ZM23.0405 16.0254L22.9429 16.123V16.2695L23.0894 16.3184L23.2358 16.1719L23.187 16.0254H23.0405ZM22.2593 17.1973V17.2949C22.8127 17.1322 23.0894 16.9694 23.0894 16.8066C23.0243 16.6764 22.9429 16.5788 22.8452 16.5137H22.6499C22.3895 16.7741 22.2593 17.002 22.2593 17.1973ZM22.4546 17.9785L22.2593 18.1738V18.418H22.4546C22.6499 18.418 22.7801 18.3366 22.8452 18.1738V18.125L22.7476 17.9785H22.4546ZM2.77686 20.127V20.2246H2.92334L3.16748 20.0293V19.6875H2.97217C2.84196 19.7852 2.77686 19.9316 2.77686 20.127ZM1.26318 20.6152H1.16553L0.970215 21.3477V21.7871H1.06787C1.19808 21.7871 1.26318 21.6243 1.26318 21.2988V20.6152ZM1.06787 22.2754H0.872559V22.5195H1.06787L1.16553 22.4219L1.06787 22.2754ZM2.38623 26.1816V27.0605C2.45133 27.8418 2.89079 28.8184 3.70459 29.9902L3.80225 30.0879H3.99756V29.8438C3.37907 27.9883 2.93962 26.1328 2.6792 24.2773H2.63037C2.46761 24.2773 2.38623 24.9121 2.38623 26.1816ZM1.4585 24.5703H1.40967L1.36084 24.8633V25.3027L1.50732 25.498L1.65381 25.3516V25.0586C1.65381 24.7656 1.5887 24.6029 1.4585 24.5703ZM1.36084 28.1836H1.21436V28.3301L1.40967 28.4766H1.4585V28.3301L1.36084 28.1836ZM2.48389 30.1367L2.3374 30.2344C2.3374 30.4297 2.41878 30.5599 2.58154 30.625H2.63037L2.77686 30.5762V30.4297L2.48389 30.1367ZM2.43506 31.4551H2.38623V31.5527C2.51644 32.2689 2.69548 32.627 2.92334 32.627H2.97217C3.10238 32.627 3.16748 32.5618 3.16748 32.4316L2.43506 31.4551ZM24.5542 32.7246L24.4077 32.7734V32.8711L24.6519 33.1152H24.7495C25.1076 33.0501 25.2866 32.9688 25.2866 32.8711V32.7734L25.2378 32.7246H24.5542ZM25.0913 33.8477V34.043C25.189 34.2383 25.3192 34.3359 25.4819 34.3359C25.6121 34.2057 25.6772 34.0104 25.6772 33.75V33.5059C25.6772 33.4082 25.6121 33.3594 25.4819 33.3594C25.2215 33.457 25.0913 33.6198 25.0913 33.8477ZM24.5542 33.9941L24.4077 34.0918V34.7266L24.603 34.9219H24.6519L24.7983 34.7754V34.4336C24.7983 34.2057 24.717 34.0592 24.5542 33.9941ZM5.02295 34.4824V34.5312C5.54378 35.5404 5.98324 36.0449 6.34131 36.0449V35.8496C5.72282 35.0033 5.28337 34.5475 5.02295 34.4824ZM3.41162 34.6289L3.31396 34.7754L3.41162 34.9219H3.50928L3.65576 34.7754L3.50928 34.6289H3.41162ZM23.0405 35.166L22.9429 35.2637V35.4102H23.187L23.3335 35.2637V35.166H23.0405ZM24.7983 35.166H24.603V35.3613H24.7495L24.7983 35.2148V35.166ZM3.8999 35.4102H3.85107V35.459C3.85107 35.5566 3.94873 35.7845 4.14404 36.1426H4.38818V36.0449C4.38818 35.8171 4.22542 35.6055 3.8999 35.4102ZM22.6011 36.0449V36.1426H22.6499L22.9429 35.9961V35.8496H22.8452C22.6825 35.9147 22.6011 35.9798 22.6011 36.0449ZM6.82959 36.2891L6.68311 36.3867C6.68311 36.8099 6.99235 37.0866 7.61084 37.2168H7.7085L7.90381 37.0703C7.64339 36.7122 7.28532 36.4518 6.82959 36.2891ZM24.9448 36.3867H24.896V36.7285L25.0425 36.875H25.0913V36.4844L24.9448 36.3867ZM4.77881 36.582H4.63232C4.89274 37.3307 5.21826 37.819 5.60889 38.0469H5.90186V37.7051C5.67399 37.347 5.29964 36.9727 4.77881 36.582ZM8.44092 37.9492H8.14795V37.998C8.14795 38.0957 8.5874 38.2422 9.46631 38.4375V38.3398C9.30355 38.0794 8.96175 37.9492 8.44092 37.9492ZM21.6245 38.584V38.6816C21.8524 38.6816 22.0314 38.5677 22.1616 38.3398V38.291H22.1128C21.8524 38.291 21.6896 38.3887 21.6245 38.584ZM24.7983 38.584L24.7495 38.6816L24.7983 38.9258L25.0425 38.877V38.6816L24.896 38.584H24.7983ZM7.22021 39.2188L7.12256 39.3652C7.15511 39.4954 7.85498 39.7721 9.22217 40.1953C9.22217 40.3255 9.49886 40.3906 10.0522 40.3906L10.2964 40.293V40.2441C10.2638 40.1139 9.66162 39.821 8.48975 39.3652C8.39209 39.2676 8.1154 39.2188 7.65967 39.2188H7.22021ZM9.56396 39.2188L9.51514 39.2676V39.3652C10.3615 39.9186 11.4032 40.1953 12.6401 40.1953H12.9819L13.0796 40.0977C11.3543 39.5117 10.1825 39.2188 9.56396 39.2188ZM13.519 39.7559C13.9097 40.179 14.5607 40.3906 15.4722 40.3906C16.5464 40.293 17.0835 40.1302 17.0835 39.9023V39.8047C17.0835 39.6419 16.6766 39.5605 15.8628 39.5605H15.1304C14.0562 39.5605 13.519 39.6257 13.519 39.7559ZM19.2319 39.7559L19.1343 39.9023H19.3296L19.4272 39.8047L19.3784 39.7559H19.2319ZM24.896 40.293L24.1636 40.3906V40.5859L24.4077 40.7812H24.6519C25.4331 40.651 25.8237 40.5208 25.8237 40.3906V40.293H24.896ZM16.2046 41.123L14.7886 41.5137V41.6602L15.5698 41.8066H15.8628C16.1883 41.8066 17.0021 41.4486 18.3042 40.7324V40.5859H18.2554C17.9624 40.5859 17.2788 40.765 16.2046 41.123ZM41.3022 16.9043L42.6694 17.2949H43.1089C44.9644 18.2064 46.6896 19.2969 48.2847 20.5664C49.9448 21.9987 50.7749 23.0729 50.7749 23.7891H50.6772C50.4168 23.3333 50.1564 23.1055 49.896 23.1055H49.8472C49.7495 23.1055 49.7007 23.1706 49.7007 23.3008C49.8309 23.6589 50.1239 24.2773 50.5796 25.1562H50.6772C50.7424 25.1562 50.8237 24.9935 50.9214 24.668H50.9702C51.0679 24.7005 51.1818 25.1725 51.312 26.084L51.7515 27.0605L51.6538 27.6953L51.8003 29.4531C51.5724 30.2669 51.3608 31.3411 51.1655 32.6758C51.0353 33.2943 49.5216 35.6055 46.6245 39.6094C45.3224 40.8464 44.0529 41.4648 42.8159 41.4648C41.6766 41.5951 40.3908 41.6602 38.9585 41.6602H38.0308C37.4774 41.6602 36.0288 41.1882 33.6851 40.2441C30.7228 37.6074 29.2417 35.5892 29.2417 34.1895C28.8185 33.3105 28.4604 32.4967 28.1675 31.748C28.1675 31.3249 28.6069 29.9251 29.4858 27.5488C29.4858 26.0514 29.8439 25.0098 30.5601 24.4238C32.09 21.1361 34.0269 19.0039 36.3706 18.0273C38.4214 17.2786 40.0653 16.9043 41.3022 16.9043ZM32.5132 32.2363V32.5293C32.9689 33.4082 33.4735 34.3522 34.0269 35.3613C34.0269 35.6868 34.6453 36.1426 35.8823 36.7285C36.4683 37.4121 37.5588 37.9492 39.1538 38.3398L40.0327 38.4375C41.465 38.1445 42.5392 37.8353 43.2554 37.5098L45.0132 36.0449C46.8361 34.0918 47.715 32.4479 47.6499 31.1133V30.6738C47.4546 30.153 47.3569 29.3066 47.3569 28.1348C47.3569 27.2233 47.422 26.5072 47.5522 25.9863C47.5522 25.7585 46.9175 25.1888 45.6479 24.2773C44.7365 22.9753 43.7925 22.1777 42.8159 21.8848H42.23C38.4214 22.0475 36.5171 22.3568 36.5171 22.8125C35.6707 23.6589 35.0848 24.4889 34.7593 25.3027C33.7176 26.4095 33.1968 27.1419 33.1968 27.5C32.9038 28.8346 32.6759 30.4134 32.5132 32.2363ZM34.0269 20.4199L33.8804 20.6641V20.8594C34.0757 20.8594 35.0685 20.1758 36.8589 18.8086L37.2495 18.6621L37.5425 18.7109C39.7235 18.4831 40.814 18.2715 40.814 18.0762V18.0273L40.0327 17.8809C37.8192 17.8809 35.8172 18.7272 34.0269 20.4199ZM37.8354 21.4453V21.4941L37.9331 21.6406H38.6167L42.0835 20.8594V20.7617L41.1558 20.5664C38.9422 20.8268 37.8354 21.1198 37.8354 21.4453ZM30.1694 33.6035L29.9741 33.75V34.0918C30.0392 35.1986 30.3485 35.8171 30.9019 35.9473L30.9507 35.8984V35.8496C30.7228 34.3522 30.4624 33.6035 30.1694 33.6035ZM37.7378 19.7852V20.0293C40.2769 19.7363 41.5464 19.541 41.5464 19.4434L41.1558 19.2969H41.1069C39.5444 19.2969 38.4214 19.4596 37.7378 19.7852ZM41.8882 17.9297C42.0509 18.3854 42.409 18.6133 42.9624 18.6133L43.4507 18.6621L43.5483 18.6133V18.3691C43.5483 18.0111 43.2065 17.7995 42.5229 17.7344C42.0998 17.7669 41.8882 17.832 41.8882 17.9297ZM33.0015 38.5352H32.6597V38.7305C33.0828 39.1536 33.8478 39.3652 34.9546 39.3652H35.4917C35.3289 39.1374 34.4989 38.8607 33.0015 38.5352ZM41.0581 40.3418V40.4395C41.0581 40.5371 41.3022 40.6185 41.7905 40.6836C42.3439 40.6836 42.6206 40.6022 42.6206 40.4395V40.3418C42.5881 40.2116 42.4741 40.0814 42.2788 39.9512H41.8394C41.4813 39.9512 41.2209 40.0814 41.0581 40.3418ZM50.3354 31.0645C50.368 32.041 50.4494 32.5618 50.5796 32.627H50.6772C50.6772 32.2689 50.8237 31.8783 51.1167 31.4551V31.3086L50.5796 30.5762H50.4819C50.4168 30.5762 50.368 30.7389 50.3354 31.0645ZM47.1128 22.666H46.9175C47.1128 23.0892 47.5848 23.4473 48.3335 23.7402H48.5288L48.6753 23.5938V23.5449C48.1219 22.959 47.6011 22.666 47.1128 22.666ZM46.0386 21.1523V21.25C46.1362 21.6406 46.592 22.0475 47.4058 22.4707H47.5522L47.6499 22.3242V22.2754C47.4871 22.0475 46.95 21.6732 46.0386 21.1523ZM42.8159 19.541L42.7183 19.5898C43.3368 20.0781 43.825 20.3223 44.1831 20.3223L44.2319 20.2246V20.1758C43.7111 19.7526 43.2391 19.541 42.8159 19.541ZM36.3218 39.1699V39.3164C36.3218 39.5117 36.7775 39.6094 37.689 39.6094L37.7378 39.5605V39.4629C37.3146 39.2676 36.8426 39.1699 36.3218 39.1699ZM45.3062 19.0039L45.1597 19.1504C45.5177 19.6061 45.8758 19.834 46.2339 19.834C46.2339 19.4759 45.9572 19.1992 45.4038 19.0039H45.3062ZM33.3921 24.0332V24.375H33.5386C33.9618 23.9844 34.1733 23.6751 34.1733 23.4473V23.3984H33.9292C33.7339 23.5286 33.5549 23.7402 33.3921 24.0332ZM44.4272 21.7871C44.6226 22.1126 44.8504 22.2754 45.1108 22.2754L45.1597 22.1777V22.0801C45.1597 21.7871 45.0295 21.6406 44.769 21.6406C44.5412 21.6732 44.4272 21.722 44.4272 21.7871ZM49.1636 34.6289V34.6777C49.424 34.6777 49.6519 34.4173 49.8472 33.8965V33.7988H49.7007C49.5054 33.7988 49.3263 34.0755 49.1636 34.6289ZM34.4175 21.4941C34.7104 21.4941 34.9871 21.2988 35.2476 20.9082V20.7617C34.6942 20.9245 34.4175 21.1686 34.4175 21.4941ZM49.9448 33.75H50.189L50.3843 33.8965C50.4168 33.3757 50.3354 33.1478 50.1401 33.2129H50.0425L49.9937 32.8711L49.9448 33.75ZM43.6948 40.6836H43.7437C44.3296 40.4883 44.6226 40.3255 44.6226 40.1953L44.5249 40.0977C44.0692 40.2604 43.7925 40.4557 43.6948 40.6836ZM31.9761 36.8262L31.7808 36.9238V37.0215L32.1714 37.4121H32.3667C32.3667 37.1842 32.2365 36.9889 31.9761 36.8262ZM35.2964 39.8535V39.9023H35.9312L36.0288 39.8047L35.9312 39.6582H35.8335C35.508 39.6582 35.3289 39.7233 35.2964 39.8535ZM51.1167 27.5977L50.9702 27.7441V27.9395L51.1167 28.1348L51.312 27.9395V27.7441L51.1655 27.5977H51.1167ZM30.4624 26.0352C30.6252 26.0352 30.7716 25.9212 30.9019 25.6934V25.5957C30.6089 25.5957 30.4624 25.7422 30.4624 26.0352ZM28.9487 31.3086L28.8511 31.4551C28.8836 31.748 28.9325 31.8945 28.9976 31.8945L29.0952 31.8457V31.6016L28.9976 31.3086H28.9487ZM41.9858 20.0293V20.0781L42.4741 19.6875L42.3765 19.6387C42.0509 19.834 41.9207 19.9642 41.9858 20.0293ZM31.439 24.375H31.4878C31.618 24.3424 31.6831 24.2122 31.6831 23.9844H31.5854C31.4878 24.0495 31.439 24.1797 31.439 24.375ZM31.7319 30.2344L31.5366 30.4297V30.5273H31.6831L31.7808 30.3809V30.2344H31.7319ZM34.6128 22.8613H34.4175V23.0566H34.5151L34.6128 22.959V22.8613ZM66.0581 6.89453L66.2534 6.8457C67.1649 6.91081 68.7111 7.33398 70.8921 8.11523C71.0874 8.31055 71.299 8.4082 71.5269 8.4082L71.8198 8.26172L74.1147 11.2402C74.6356 11.9889 74.896 12.5749 74.896 12.998C75.2215 13.9421 75.3843 14.8698 75.3843 15.7812C75.3843 16.6276 74.7983 17.0508 73.6265 17.0508C73.3335 17.0508 72.7964 16.9206 72.0151 16.6602C71.95 16.6602 71.8361 16.8392 71.6733 17.1973H71.5269C71.3641 17.1973 71.12 16.5625 70.7944 15.293C69.8504 12.6237 69.3296 11.2728 69.2319 11.2402C68.7762 10.9798 67.8322 10.8496 66.3999 10.8496H66.2534L62.5425 11.7773C61.631 12.3958 61.1753 12.8027 61.1753 12.998C61.1753 17.4251 61.3381 19.6387 61.6636 19.6387C62.4123 20.1595 63.8446 20.4199 65.9604 20.4199C66.3511 20.5176 66.5464 20.6803 66.5464 20.9082C67.1649 21.429 67.4741 21.9824 67.4741 22.5684C67.4741 23.9355 66.4813 24.6191 64.4956 24.6191H64.3979C63.9097 24.6191 63.3563 24.4401 62.7378 24.082L62.4448 24.0332C61.7938 24.0983 61.4683 24.196 61.4683 24.3262V30.9668C61.4683 31.8457 61.5496 32.8548 61.7124 33.9941L61.6147 35.4102V36.7285C61.6147 36.9564 62.575 37.2168 64.4956 37.5098C66.2209 37.5098 67.2463 37.6725 67.5718 37.998L67.7671 38.1445C67.5718 38.1445 67.3602 39.0885 67.1323 40.9766L65.1304 40.6836L64.4956 40.7812C62.2495 40.4557 60.4266 40.293 59.0269 40.293L55.0229 40.3906C54.8927 40.2604 54.8276 40.0163 54.8276 39.6582V38.584C54.8276 37.5423 54.7625 36.8262 54.6323 36.4355C54.6323 36.2077 54.909 36.0938 55.4624 36.0938C55.7879 36.0938 56.4227 36.2402 57.3667 36.5332H58.0991C58.4246 36.5332 58.6362 36.4355 58.7339 36.2402V36.1426C58.4409 35.4264 58.2944 34.2383 58.2944 32.5781C58.0991 31.7969 58.0015 31.1296 58.0015 30.5762V30.4785C58.0015 29.6647 58.2293 27.6139 58.6851 24.3262C58.6851 24.2285 58.3921 24.1471 57.8062 24.082H57.6108C56.2437 24.5052 55.0718 24.7168 54.0952 24.7168L53.3628 24.5703C53.5256 21.543 53.7209 20.0293 53.9487 20.0293C53.9813 19.9316 54.1115 19.8828 54.3394 19.8828H54.5835C57.09 19.8177 58.3433 19.7201 58.3433 19.5898C58.3433 17.9622 58.327 16.4974 58.2944 15.1953C58.2619 13.8932 58.2456 13.2259 58.2456 13.1934V12.998L57.9526 12.1191C58.4084 11.3053 58.8641 10.6706 59.3198 10.2148L61.6147 7.82227C62.9494 7.20378 64.4305 6.89453 66.0581 6.89453ZM62.2983 8.79883C63.5028 8.79883 64.3979 8.55469 64.9839 8.06641V7.91992H64.8862C63.9422 7.91992 63.0796 8.21289 62.2983 8.79883ZM69.6714 8.70117C70.2248 9.35221 70.7293 9.67773 71.1851 9.67773V9.33594C70.7944 8.8151 70.3387 8.55469 69.8179 8.55469H69.769C69.7039 8.55469 69.6714 8.60352 69.6714 8.70117ZM66.5464 8.79883L66.1069 8.89648V8.99414C66.172 9.0918 66.286 9.14062 66.4487 9.14062H67.1323L67.2788 9.04297C67.2788 8.88021 67.0347 8.79883 66.5464 8.79883ZM65.521 10.1172L65.3745 10.2637V10.3125H65.521L65.6675 10.2148V10.1172H65.521ZM70.8921 12.5586H70.7944V12.6562C70.7944 13.0794 70.9572 13.4701 71.2827 13.8281H71.478L71.5269 13.4863C71.4943 12.8678 71.2827 12.5586 70.8921 12.5586ZM71.8687 15.6348L72.0151 15.6836H72.2104L72.2593 15.4395V14.8535H72.2104C71.9826 15.0488 71.8687 15.3092 71.8687 15.6348ZM54.144 20.7129V20.9082L54.2905 21.0059H54.5347C54.73 20.9733 54.8765 20.8268 54.9741 20.5664L54.8276 20.4199H54.6323C54.4045 20.4199 54.2417 20.5176 54.144 20.7129ZM56.5366 20.9082L56.2925 21.1035V21.2012C56.2925 21.429 56.3901 21.5918 56.5854 21.6895C56.8133 21.6895 57.1063 21.5592 57.4644 21.2988C57.4644 21.2012 57.1714 21.071 56.5854 20.9082H56.5366ZM62.5425 21.4941H62.2983V21.6406C62.4285 21.8685 62.6727 21.9824 63.0308 21.9824H63.3237V21.8359C63.1935 21.6081 62.9331 21.4941 62.5425 21.4941ZM64.9839 22.0801H64.8374V22.1777H64.9839V22.0801ZM60.0034 22.1289H59.9546V22.5195L60.1011 22.6172V22.5684V22.2266L60.0034 22.1289ZM56.6831 22.5684L56.5854 22.7148V22.8125L56.8784 22.8613H57.0249L57.0737 22.7148C57.0737 22.6823 56.9435 22.6335 56.6831 22.5684ZM64.9351 23.3496L65.1304 23.3984C66.0744 23.2357 66.5464 23.0566 66.5464 22.8613V22.7148H66.2534C65.3745 22.8125 64.9351 23.0241 64.9351 23.3496ZM54.6323 23.1055C54.437 23.3984 54.3394 23.6426 54.3394 23.8379V24.0332L54.437 24.1309H54.9741L55.0718 24.0332C55.0718 23.6751 54.9253 23.3659 54.6323 23.1055ZM57.855 23.3496L57.7573 23.4961V23.5449H58.3433L58.4897 23.3984V23.3496H57.855ZM59.8081 24.8145H59.7104L59.564 26.1816L59.6616 27.0117H59.7104L59.8081 26.2305V24.8145ZM60.394 26.1328H60.2476V26.2793H60.394V26.1328ZM60.2964 27.0117H60.1011V27.2559V27.4512L60.2964 27.2559V27.0117ZM60.1987 27.8418L60.0034 27.793L59.9546 27.8418V27.9395L60.0034 28.2324H60.1987V27.8418ZM59.4663 28.7207L59.6616 29.2578L59.564 29.8926C59.6616 30.9342 59.7918 31.4551 59.9546 31.4551H60.0034C60.1662 31.4551 60.2638 30.8691 60.2964 29.6973V29.4531C60.2964 28.8021 60.1011 28.4766 59.7104 28.4766H59.564C59.4989 28.4766 59.4663 28.5579 59.4663 28.7207ZM59.9546 33.7988H59.7104V33.9941L59.9058 34.0918H60.0034L59.9546 33.7988ZM59.8081 35.1172H59.7104C59.6779 35.3451 59.6616 35.8333 59.6616 36.582V36.6309H59.9058L60.1011 36.4355V35.8008C60.0034 35.3451 59.9058 35.1172 59.8081 35.1172ZM56.439 36.8262H56.2925V37.0215C56.2925 37.1517 56.5529 37.2331 57.0737 37.2656L57.6108 37.168V37.1191C57.09 36.9238 56.6994 36.8262 56.439 36.8262ZM65.1792 38.3398V38.4375L65.6187 38.4863C66.2697 38.4212 66.5952 38.3398 66.5952 38.2422L66.5464 38.1445H65.6675C65.342 38.1445 65.1792 38.2096 65.1792 38.3398ZM56.2437 38.877L56.146 38.9746V39.0234C56.146 39.2513 56.8133 39.3978 58.1479 39.4629L58.2456 39.3652C57.8224 39.0397 57.269 38.877 56.5854 38.877H56.2437ZM58.8315 38.877V38.9746C59.1245 39.3001 59.4012 39.4629 59.6616 39.4629H60.0034V39.3652C59.5802 39.0397 59.1896 38.877 58.8315 38.877ZM66.2534 39.3164L66.0581 39.4629V39.5605L66.3999 39.9512H66.5464L66.644 39.8047V39.4629L66.4487 39.3164H66.2534ZM61.4194 39.3652H60.687V39.4629C60.687 39.6582 60.9963 39.7721 61.6147 39.8047H62.396L62.5425 39.6582C62.5425 39.4629 62.1681 39.3652 61.4194 39.3652ZM85.8335 6.89453L86.0288 6.8457C86.9403 6.91081 88.4865 7.33398 90.6675 8.11523C90.8628 8.31055 91.0744 8.4082 91.3022 8.4082L91.5952 8.26172L93.8901 11.2402C94.411 11.9889 94.6714 12.5749 94.6714 12.998C94.9969 13.9421 95.1597 14.8698 95.1597 15.7812C95.1597 16.6276 94.5737 17.0508 93.4019 17.0508C93.1089 17.0508 92.5718 16.9206 91.7905 16.6602C91.7254 16.6602 91.6115 16.8392 91.4487 17.1973H91.3022C91.1395 17.1973 90.8953 16.5625 90.5698 15.293C89.6258 12.6237 89.105 11.2728 89.0073 11.2402C88.5516 10.9798 87.6076 10.8496 86.1753 10.8496H86.0288L82.3179 11.7773C81.4064 12.3958 80.9507 12.8027 80.9507 12.998C80.9507 17.4251 81.1134 19.6387 81.439 19.6387C82.1877 20.1595 83.62 20.4199 85.7358 20.4199C86.1265 20.5176 86.3218 20.6803 86.3218 20.9082C86.9403 21.429 87.2495 21.9824 87.2495 22.5684C87.2495 23.9355 86.2567 24.6191 84.271 24.6191H84.1733C83.6851 24.6191 83.1317 24.4401 82.5132 24.082L82.2202 24.0332C81.5692 24.0983 81.2437 24.196 81.2437 24.3262V30.9668C81.2437 31.8457 81.325 32.8548 81.4878 33.9941L81.3901 35.4102V36.7285C81.3901 36.9564 82.3504 37.2168 84.271 37.5098C85.9963 37.5098 87.0216 37.6725 87.3472 37.998L87.5425 38.1445C87.3472 38.1445 87.1356 39.0885 86.9077 40.9766L84.9058 40.6836L84.271 40.7812C82.0249 40.4557 80.202 40.293 78.8022 40.293L74.7983 40.3906C74.6681 40.2604 74.603 40.0163 74.603 39.6582V38.584C74.603 37.5423 74.5379 36.8262 74.4077 36.4355C74.4077 36.2077 74.6844 36.0938 75.2378 36.0938C75.5633 36.0938 76.1981 36.2402 77.1421 36.5332H77.8745C78.2 36.5332 78.4116 36.4355 78.5093 36.2402V36.1426C78.2163 35.4264 78.0698 34.2383 78.0698 32.5781C77.8745 31.7969 77.7769 31.1296 77.7769 30.5762V30.4785C77.7769 29.6647 78.0047 27.6139 78.4604 24.3262C78.4604 24.2285 78.1675 24.1471 77.5815 24.082H77.3862C76.019 24.5052 74.8472 24.7168 73.8706 24.7168L73.1382 24.5703C73.3009 21.543 73.4963 20.0293 73.7241 20.0293C73.7567 19.9316 73.8869 19.8828 74.1147 19.8828H74.3589C76.8654 19.8177 78.1187 19.7201 78.1187 19.5898C78.1187 17.9622 78.1024 16.4974 78.0698 15.1953C78.0373 13.8932 78.021 13.2259 78.021 13.1934V12.998L77.728 12.1191C78.1838 11.3053 78.6395 10.6706 79.0952 10.2148L81.3901 7.82227C82.7248 7.20378 84.2059 6.89453 85.8335 6.89453ZM82.0737 8.79883C83.2782 8.79883 84.1733 8.55469 84.7593 8.06641V7.91992H84.6616C83.7176 7.91992 82.855 8.21289 82.0737 8.79883ZM89.4468 8.70117C90.0002 9.35221 90.5047 9.67773 90.9604 9.67773V9.33594C90.5698 8.8151 90.1141 8.55469 89.5933 8.55469H89.5444C89.4793 8.55469 89.4468 8.60352 89.4468 8.70117ZM86.3218 8.79883L85.8823 8.89648V8.99414C85.9474 9.0918 86.0614 9.14062 86.2241 9.14062H86.9077L87.0542 9.04297C87.0542 8.88021 86.8101 8.79883 86.3218 8.79883ZM85.2964 10.1172L85.1499 10.2637V10.3125H85.2964L85.4429 10.2148V10.1172H85.2964ZM90.6675 12.5586H90.5698V12.6562C90.5698 13.0794 90.7326 13.4701 91.0581 13.8281H91.2534L91.3022 13.4863C91.2697 12.8678 91.0581 12.5586 90.6675 12.5586ZM91.644 15.6348L91.7905 15.6836H91.9858L92.0347 15.4395V14.8535H91.9858C91.758 15.0488 91.644 15.3092 91.644 15.6348ZM73.9194 20.7129V20.9082L74.0659 21.0059H74.3101C74.5054 20.9733 74.6519 20.8268 74.7495 20.5664L74.603 20.4199H74.4077C74.1799 20.4199 74.0171 20.5176 73.9194 20.7129ZM76.312 20.9082L76.0679 21.1035V21.2012C76.0679 21.429 76.1655 21.5918 76.3608 21.6895C76.5887 21.6895 76.8817 21.5592 77.2397 21.2988C77.2397 21.2012 76.9468 21.071 76.3608 20.9082H76.312ZM82.3179 21.4941H82.0737V21.6406C82.2039 21.8685 82.4481 21.9824 82.8062 21.9824H83.0991V21.8359C82.9689 21.6081 82.7085 21.4941 82.3179 21.4941ZM84.7593 22.0801H84.6128V22.1777H84.7593V22.0801ZM79.7788 22.1289H79.73V22.5195L79.8765 22.6172V22.5684V22.2266L79.7788 22.1289ZM76.4585 22.5684L76.3608 22.7148V22.8125L76.6538 22.8613H76.8003L76.8491 22.7148C76.8491 22.6823 76.7189 22.6335 76.4585 22.5684ZM84.7104 23.3496L84.9058 23.3984C85.8498 23.2357 86.3218 23.0566 86.3218 22.8613V22.7148H86.0288C85.1499 22.8125 84.7104 23.0241 84.7104 23.3496ZM74.4077 23.1055C74.2124 23.3984 74.1147 23.6426 74.1147 23.8379V24.0332L74.2124 24.1309H74.7495L74.8472 24.0332C74.8472 23.6751 74.7007 23.3659 74.4077 23.1055ZM77.6304 23.3496L77.5327 23.4961V23.5449H78.1187L78.2651 23.3984V23.3496H77.6304ZM79.5835 24.8145H79.4858L79.3394 26.1816L79.437 27.0117H79.4858L79.5835 26.2305V24.8145ZM80.1694 26.1328H80.0229V26.2793H80.1694V26.1328ZM80.0718 27.0117H79.8765V27.2559V27.4512L80.0718 27.2559V27.0117ZM79.9741 27.8418L79.7788 27.793L79.73 27.8418V27.9395L79.7788 28.2324H79.9741V27.8418ZM79.2417 28.7207L79.437 29.2578L79.3394 29.8926C79.437 30.9342 79.5672 31.4551 79.73 31.4551H79.7788C79.9416 31.4551 80.0392 30.8691 80.0718 29.6973V29.4531C80.0718 28.8021 79.8765 28.4766 79.4858 28.4766H79.3394C79.2743 28.4766 79.2417 28.5579 79.2417 28.7207ZM79.73 33.7988H79.4858V33.9941L79.6812 34.0918H79.7788L79.73 33.7988ZM79.5835 35.1172H79.4858C79.4533 35.3451 79.437 35.8333 79.437 36.582V36.6309H79.6812L79.8765 36.4355V35.8008C79.7788 35.3451 79.6812 35.1172 79.5835 35.1172ZM76.2144 36.8262H76.0679V37.0215C76.0679 37.1517 76.3283 37.2331 76.8491 37.2656L77.3862 37.168V37.1191C76.8654 36.9238 76.4748 36.8262 76.2144 36.8262ZM84.9546 38.3398V38.4375L85.394 38.4863C86.0451 38.4212 86.3706 38.3398 86.3706 38.2422L86.3218 38.1445H85.4429C85.1174 38.1445 84.9546 38.2096 84.9546 38.3398ZM76.019 38.877L75.9214 38.9746V39.0234C75.9214 39.2513 76.5887 39.3978 77.9233 39.4629L78.021 39.3652C77.5978 39.0397 77.0444 38.877 76.3608 38.877H76.019ZM78.6069 38.877V38.9746C78.8999 39.3001 79.1766 39.4629 79.437 39.4629H79.7788V39.3652C79.3556 39.0397 78.965 38.877 78.6069 38.877ZM86.0288 39.3164L85.8335 39.4629V39.5605L86.1753 39.9512H86.3218L86.4194 39.8047V39.4629L86.2241 39.3164H86.0288ZM81.1948 39.3652H80.4624V39.4629C80.4624 39.6582 80.7716 39.7721 81.3901 39.8047H82.1714L82.3179 39.6582C82.3179 39.4629 81.9435 39.3652 81.1948 39.3652ZM104.486 15.4883C105.853 15.4883 107.513 16.0742 109.466 17.2461C111.126 18.4831 111.957 19.3294 111.957 19.7852C113.259 22.5195 113.91 24.1634 113.91 24.7168L113.958 25.1074C113.47 26.2467 113.226 27.028 113.226 27.4512L112.933 27.5H108.783C108.392 27.5 107.92 27.5488 107.367 27.6465C102.679 27.2559 99.3914 27.0605 97.5034 27.0605H96.478C96.0874 27.6465 95.8921 28.0697 95.8921 28.3301C96.12 28.6882 96.2339 29.2578 96.2339 30.0391C96.2339 31.276 96.4292 32.0085 96.8198 32.2363L96.8687 32.4805V32.5293L96.5757 32.3828V32.5293L97.0151 33.0176C97.0151 33.4408 97.3081 33.9779 97.894 34.6289C98.9683 36.5169 100.14 37.6888 101.41 38.1445C102.484 38.5026 103.705 38.6816 105.072 38.6816C105.3 38.6816 105.772 38.4701 106.488 38.0469C107.074 37.9167 108.311 36.8587 110.199 34.873V34.7266C110.199 34.6615 109.971 34.5964 109.515 34.5312L109.417 34.2871C110.166 32.8548 111.061 31.9108 112.103 31.4551C112.396 31.748 112.998 32.2038 113.91 32.8223C114.626 33.929 115.586 35.2311 116.791 36.7285V36.9238C115.749 38.291 115 38.9746 114.544 38.9746H114.349C114.349 38.2585 113.91 37.8516 113.031 37.7539C112.868 37.7539 112.152 38.291 110.882 39.3652C110.134 39.9512 108.848 40.5046 107.025 41.0254C104.909 41.4486 103.412 41.6602 102.533 41.6602L99.7495 40.6836C98.187 40.6836 96.7547 39.8372 95.4526 38.1445C94.8993 37.5586 94.4435 36.8587 94.0854 36.0449C94.0854 35.7845 93.7274 34.4336 93.0112 31.9922C92.7834 31.0482 92.6694 30.1367 92.6694 29.2578V29.209C92.6694 24.8796 93.9715 21.0872 96.5757 17.832C96.9012 17.0182 97.6499 16.416 98.8218 16.0254C99.603 15.7975 100.547 15.6185 101.654 15.4883C101.947 15.3581 102.891 15.3581 104.486 15.4883ZM99.9937 16.5137V16.5625H100.091C100.612 16.5625 101.589 16.3835 103.021 16.0254C103.314 15.9928 103.46 15.9115 103.46 15.7812L103.314 15.6348H103.265C102.321 15.6348 101.263 15.8952 100.091 16.416L99.9937 16.5137ZM98.0405 17.3438V17.3926L98.187 17.4902H98.2358C98.8869 17.3275 99.2124 17.1647 99.2124 17.002V16.709L99.0171 16.5137H98.9194C98.3335 16.709 98.0405 16.9857 98.0405 17.3438ZM105.56 16.8555H104.095V16.9531C104.095 17.0833 104.763 17.181 106.097 17.2461H106.146V17.0508C106.146 16.9857 105.951 16.9206 105.56 16.8555ZM102.093 17.5879V17.6367C102.093 17.7669 102.761 17.9297 104.095 18.125L104.193 18.0762V17.8809C103.932 17.5228 103.493 17.3438 102.875 17.3438H102.728C102.305 17.3763 102.093 17.4577 102.093 17.5879ZM105.072 17.8809V17.9297C106.927 19.0039 107.92 19.541 108.05 19.541H108.099L108.587 19.3457L108.88 19.4434L108.929 19.3457V19.2969C108.799 19.1992 108.522 19.1016 108.099 19.0039L107.123 18.5645C106.862 18.0111 106.341 17.7344 105.56 17.7344H105.414C105.186 17.7669 105.072 17.8158 105.072 17.8809ZM99.2612 19.2969C99.5868 19.0365 100.238 18.7598 101.214 18.4668V18.3691L101.166 18.2715H100.677C99.7332 18.5319 99.2612 18.8737 99.2612 19.2969ZM96.6733 22.5195V22.666C96.6733 23.0241 99.6356 23.431 105.56 23.8867L106.048 24.0332L106.683 23.9844C107.985 24.4076 108.864 24.6191 109.32 24.6191C109.32 24.7168 109.417 24.7982 109.613 24.8633C109.808 24.5703 109.906 24.2936 109.906 24.0332V23.1055C109.906 22.6823 109.092 21.7383 107.464 20.2734C106.716 19.5247 105.869 19.1016 104.925 19.0039L103.265 18.7109C100.563 19.2643 98.7892 19.9316 97.9429 20.7129C97.5848 21.3965 97.1616 21.9987 96.6733 22.5195ZM97.2104 19.5898V19.6875H97.3081C97.7313 19.5898 97.9429 19.4759 97.9429 19.3457V19.2969H97.6987C97.536 19.2969 97.3732 19.3945 97.2104 19.5898ZM108.88 20.2734C108.945 20.5339 109.092 20.6641 109.32 20.6641H109.417L109.515 20.5176V20.2246L109.32 19.9805C109.027 19.9805 108.88 20.0781 108.88 20.2734ZM96.2827 20.5176L96.1851 20.6641V20.7129H96.2827L96.478 20.5664V20.5176H96.2827ZM110.101 20.9082H109.906C110.264 21.9824 110.524 22.5684 110.687 22.666H110.882L111.029 22.5684C110.768 21.5267 110.492 21.0059 110.199 21.0059L110.101 20.9082ZM96.7222 21.7871C96.9175 21.7546 97.0151 21.6243 97.0151 21.3965V21.3477C96.8198 21.4128 96.7222 21.5592 96.7222 21.7871ZM111.761 23.1055L111.615 23.2031V23.5449L111.761 23.7402C111.891 23.7077 111.957 23.5938 111.957 23.3984V23.2031L111.908 23.1055H111.761ZM96.1851 23.7891V23.9844L96.2827 24.082H96.3804C96.6082 23.9844 96.8035 23.8053 96.9663 23.5449V23.3984H96.7222C96.5269 23.3984 96.3478 23.5286 96.1851 23.7891ZM94.1831 23.4961C93.9227 23.7565 93.6948 24.4076 93.4995 25.4492H93.5972C93.7925 25.4492 94.0854 24.8796 94.4761 23.7402C94.411 23.5775 94.3133 23.4961 94.1831 23.4961ZM99.1636 24.082V24.2285C99.7821 24.6517 100.905 24.8633 102.533 24.8633H102.972L103.607 24.8145V24.6191C102.272 24.3262 100.791 24.1471 99.1636 24.082ZM108.099 25.3516H107.953V25.498H108.099V25.3516ZM98.6753 25.7422V25.8398C99.3263 26.0026 101.052 26.1654 103.851 26.3281V26.377V26.4258L102.826 26.5723C102.826 26.6699 103.249 26.7188 104.095 26.7188C105.462 26.7188 106.146 26.6536 106.146 26.5234C106.146 26.1979 103.656 25.9375 98.6753 25.7422ZM93.7437 26.084H93.4995V26.377C93.4995 26.5723 93.5483 26.6699 93.646 26.6699C93.8088 26.6699 93.9064 26.5072 93.939 26.1816L93.7437 26.084ZM97.6987 26.1816L97.4546 26.2305V26.5234H97.6987V26.3281V26.2305V26.1816ZM96.1362 26.5723V26.6211H96.1851L97.0151 26.5234V26.4258L96.8687 26.2305H96.7222C96.4292 26.2305 96.2339 26.3444 96.1362 26.5723ZM108.001 26.6699C108.001 26.8001 108.294 26.8652 108.88 26.8652L109.32 26.8164V26.7188C109.32 26.5885 109.011 26.5234 108.392 26.5234C108.132 26.5885 108.001 26.6374 108.001 26.6699ZM93.4995 27.9395V28.0859V28.1348C93.467 28.2324 93.4507 28.4603 93.4507 28.8184V29.0137C93.4507 29.5996 93.6134 30.1204 93.939 30.5762H93.9878C93.9878 29.0137 93.825 28.1348 93.4995 27.9395ZM94.3784 32.1875H94.2319V32.2852L94.3784 32.3828H94.4761V32.2852L94.3784 32.1875ZM94.7202 33.0176L94.6714 33.0664V33.1641C94.8016 33.6849 94.9969 33.9453 95.2573 33.9453V33.8965V33.7988C95.2573 33.5384 95.0783 33.278 94.7202 33.0176ZM110.638 33.457L110.736 33.6035H110.98C111.175 33.6035 111.289 33.5384 111.322 33.4082L111.126 33.2129H111.078C110.85 33.2129 110.703 33.2943 110.638 33.457ZM109.515 36.2891L109.613 36.3379H109.662C110.02 36.3379 110.248 36.1263 110.345 35.7031V35.6055C109.987 35.6055 109.71 35.8333 109.515 36.2891ZM112.933 36.1914L112.982 36.2402H113.128C113.324 36.11 113.421 35.931 113.421 35.7031H113.275C113.047 35.8333 112.933 35.9961 112.933 36.1914ZM114.642 35.7031H114.593V35.8008C114.691 36.1914 114.837 36.3867 115.033 36.3867H115.082L115.179 36.2891V36.2402C115.114 35.8822 114.935 35.7031 114.642 35.7031ZM111.81 36.7285L111.957 36.8262C112.445 36.6634 112.689 36.4518 112.689 36.1914V36.0938H112.64C112.184 36.0938 111.908 36.3053 111.81 36.7285ZM108.001 37.8027H108.099C108.36 37.7051 108.506 37.5423 108.539 37.3145L108.49 37.2656C108.164 37.4609 108.001 37.64 108.001 37.8027ZM110.882 38.0469H111.078C111.403 37.7539 111.566 37.5423 111.566 37.4121H111.517C111.094 37.5423 110.882 37.7539 110.882 38.0469ZM97.0151 38.4863H96.8687V38.6816C96.9338 38.8444 97.2104 39.0234 97.6987 39.2188L97.894 39.3652C97.536 38.8118 97.243 38.5189 97.0151 38.4863ZM100.433 38.6816H100.384V38.7305C100.384 38.8607 100.726 39.0072 101.41 39.1699L101.458 39.1211V39.0234C101.035 38.7956 100.694 38.6816 100.433 38.6816ZM103.314 39.2188H103.167V39.3652H103.314V39.2188ZM108.392 39.9512C108.718 39.9512 108.978 39.707 109.173 39.2188H109.027C108.604 39.4466 108.392 39.6908 108.392 39.9512ZM104.974 40.4395L103.949 40.3418H103.753C103.46 40.3418 103.298 40.4069 103.265 40.5371V40.6348L103.46 40.7812H104.339C105.348 40.7812 106.537 40.6022 107.904 40.2441C107.839 40.0488 107.643 39.9512 107.318 39.9512H107.074C106.292 39.9512 105.593 40.1139 104.974 40.4395ZM129.73 15.4883C131.097 15.4883 132.757 16.0742 134.71 17.2461C136.371 18.4831 137.201 19.3294 137.201 19.7852C138.503 22.5195 139.154 24.1634 139.154 24.7168L139.203 25.1074C138.714 26.2467 138.47 27.028 138.47 27.4512L138.177 27.5H134.027C133.636 27.5 133.164 27.5488 132.611 27.6465C127.923 27.2559 124.636 27.0605 122.748 27.0605H121.722C121.332 27.6465 121.136 28.0697 121.136 28.3301C121.364 28.6882 121.478 29.2578 121.478 30.0391C121.478 31.276 121.673 32.0085 122.064 32.2363L122.113 32.4805V32.5293L121.82 32.3828V32.5293L122.259 33.0176C122.259 33.4408 122.552 33.9779 123.138 34.6289C124.212 36.5169 125.384 37.6888 126.654 38.1445C127.728 38.5026 128.949 38.6816 130.316 38.6816C130.544 38.6816 131.016 38.4701 131.732 38.0469C132.318 37.9167 133.555 36.8587 135.443 34.873V34.7266C135.443 34.6615 135.215 34.5964 134.759 34.5312L134.662 34.2871C135.41 32.8548 136.306 31.9108 137.347 31.4551C137.64 31.748 138.242 32.2038 139.154 32.8223C139.87 33.929 140.83 35.2311 142.035 36.7285V36.9238C140.993 38.291 140.244 38.9746 139.789 38.9746H139.593C139.593 38.2585 139.154 37.8516 138.275 37.7539C138.112 37.7539 137.396 38.291 136.126 39.3652C135.378 39.9512 134.092 40.5046 132.269 41.0254C130.153 41.4486 128.656 41.6602 127.777 41.6602L124.994 40.6836C123.431 40.6836 121.999 39.8372 120.697 38.1445C120.143 37.5586 119.688 36.8587 119.33 36.0449C119.33 35.7845 118.972 34.4336 118.255 31.9922C118.028 31.0482 117.914 30.1367 117.914 29.2578V29.209C117.914 24.8796 119.216 21.0872 121.82 17.832C122.145 17.0182 122.894 16.416 124.066 16.0254C124.847 15.7975 125.791 15.6185 126.898 15.4883C127.191 15.3581 128.135 15.3581 129.73 15.4883ZM125.238 16.5137V16.5625H125.335C125.856 16.5625 126.833 16.3835 128.265 16.0254C128.558 15.9928 128.705 15.9115 128.705 15.7812L128.558 15.6348H128.509C127.565 15.6348 126.507 15.8952 125.335 16.416L125.238 16.5137ZM123.285 17.3438V17.3926L123.431 17.4902H123.48C124.131 17.3275 124.457 17.1647 124.457 17.002V16.709L124.261 16.5137H124.164C123.578 16.709 123.285 16.9857 123.285 17.3438ZM130.804 16.8555H129.339V16.9531C129.339 17.0833 130.007 17.181 131.341 17.2461H131.39V17.0508C131.39 16.9857 131.195 16.9206 130.804 16.8555ZM127.337 17.5879V17.6367C127.337 17.7669 128.005 17.9297 129.339 18.125L129.437 18.0762V17.8809C129.177 17.5228 128.737 17.3438 128.119 17.3438H127.972C127.549 17.3763 127.337 17.4577 127.337 17.5879ZM130.316 17.8809V17.9297C132.171 19.0039 133.164 19.541 133.294 19.541H133.343L133.832 19.3457L134.125 19.4434L134.173 19.3457V19.2969C134.043 19.1992 133.766 19.1016 133.343 19.0039L132.367 18.5645C132.106 18.0111 131.585 17.7344 130.804 17.7344H130.658C130.43 17.7669 130.316 17.8158 130.316 17.8809ZM124.505 19.2969C124.831 19.0365 125.482 18.7598 126.458 18.4668V18.3691L126.41 18.2715H125.921C124.977 18.5319 124.505 18.8737 124.505 19.2969ZM121.917 22.5195V22.666C121.917 23.0241 124.88 23.431 130.804 23.8867L131.292 24.0332L131.927 23.9844C133.229 24.4076 134.108 24.6191 134.564 24.6191C134.564 24.7168 134.662 24.7982 134.857 24.8633C135.052 24.5703 135.15 24.2936 135.15 24.0332V23.1055C135.15 22.6823 134.336 21.7383 132.708 20.2734C131.96 19.5247 131.113 19.1016 130.169 19.0039L128.509 18.7109C125.807 19.2643 124.033 19.9316 123.187 20.7129C122.829 21.3965 122.406 21.9987 121.917 22.5195ZM122.455 19.5898V19.6875H122.552C122.975 19.5898 123.187 19.4759 123.187 19.3457V19.2969H122.943C122.78 19.2969 122.617 19.3945 122.455 19.5898ZM134.125 20.2734C134.19 20.5339 134.336 20.6641 134.564 20.6641H134.662L134.759 20.5176V20.2246L134.564 19.9805C134.271 19.9805 134.125 20.0781 134.125 20.2734ZM121.527 20.5176L121.429 20.6641V20.7129H121.527L121.722 20.5664V20.5176H121.527ZM135.345 20.9082H135.15C135.508 21.9824 135.768 22.5684 135.931 22.666H136.126L136.273 22.5684C136.013 21.5267 135.736 21.0059 135.443 21.0059L135.345 20.9082ZM121.966 21.7871C122.162 21.7546 122.259 21.6243 122.259 21.3965V21.3477C122.064 21.4128 121.966 21.5592 121.966 21.7871ZM137.005 23.1055L136.859 23.2031V23.5449L137.005 23.7402C137.136 23.7077 137.201 23.5938 137.201 23.3984V23.2031L137.152 23.1055H137.005ZM121.429 23.7891V23.9844L121.527 24.082H121.625C121.852 23.9844 122.048 23.8053 122.21 23.5449V23.3984H121.966C121.771 23.3984 121.592 23.5286 121.429 23.7891ZM119.427 23.4961C119.167 23.7565 118.939 24.4076 118.744 25.4492H118.841C119.037 25.4492 119.33 24.8796 119.72 23.7402C119.655 23.5775 119.557 23.4961 119.427 23.4961ZM124.408 24.082V24.2285C125.026 24.6517 126.149 24.8633 127.777 24.8633H128.216L128.851 24.8145V24.6191C127.516 24.3262 126.035 24.1471 124.408 24.082ZM133.343 25.3516H133.197V25.498H133.343V25.3516ZM123.919 25.7422V25.8398C124.57 26.0026 126.296 26.1654 129.095 26.3281V26.377V26.4258L128.07 26.5723C128.07 26.6699 128.493 26.7188 129.339 26.7188C130.707 26.7188 131.39 26.6536 131.39 26.5234C131.39 26.1979 128.9 25.9375 123.919 25.7422ZM118.988 26.084H118.744V26.377C118.744 26.5723 118.792 26.6699 118.89 26.6699C119.053 26.6699 119.151 26.5072 119.183 26.1816L118.988 26.084ZM122.943 26.1816L122.699 26.2305V26.5234H122.943V26.3281V26.2305V26.1816ZM121.38 26.5723V26.6211H121.429L122.259 26.5234V26.4258L122.113 26.2305H121.966C121.673 26.2305 121.478 26.3444 121.38 26.5723ZM133.246 26.6699C133.246 26.8001 133.539 26.8652 134.125 26.8652L134.564 26.8164V26.7188C134.564 26.5885 134.255 26.5234 133.636 26.5234C133.376 26.5885 133.246 26.6374 133.246 26.6699ZM118.744 27.9395V28.0859V28.1348C118.711 28.2324 118.695 28.4603 118.695 28.8184V29.0137C118.695 29.5996 118.858 30.1204 119.183 30.5762H119.232C119.232 29.0137 119.069 28.1348 118.744 27.9395ZM119.623 32.1875H119.476V32.2852L119.623 32.3828H119.72V32.2852L119.623 32.1875ZM119.964 33.0176L119.916 33.0664V33.1641C120.046 33.6849 120.241 33.9453 120.501 33.9453V33.8965V33.7988C120.501 33.5384 120.322 33.278 119.964 33.0176ZM135.882 33.457L135.98 33.6035H136.224C136.419 33.6035 136.533 33.5384 136.566 33.4082L136.371 33.2129H136.322C136.094 33.2129 135.947 33.2943 135.882 33.457ZM134.759 36.2891L134.857 36.3379H134.906C135.264 36.3379 135.492 36.1263 135.589 35.7031V35.6055C135.231 35.6055 134.955 35.8333 134.759 36.2891ZM138.177 36.1914L138.226 36.2402H138.373C138.568 36.11 138.666 35.931 138.666 35.7031H138.519C138.291 35.8333 138.177 35.9961 138.177 36.1914ZM139.886 35.7031H139.837V35.8008C139.935 36.1914 140.082 36.3867 140.277 36.3867H140.326L140.423 36.2891V36.2402C140.358 35.8822 140.179 35.7031 139.886 35.7031ZM137.054 36.7285L137.201 36.8262C137.689 36.6634 137.933 36.4518 137.933 36.1914V36.0938H137.884C137.429 36.0938 137.152 36.3053 137.054 36.7285ZM133.246 37.8027H133.343C133.604 37.7051 133.75 37.5423 133.783 37.3145L133.734 37.2656C133.408 37.4609 133.246 37.64 133.246 37.8027ZM136.126 38.0469H136.322C136.647 37.7539 136.81 37.5423 136.81 37.4121H136.761C136.338 37.5423 136.126 37.7539 136.126 38.0469ZM122.259 38.4863H122.113V38.6816C122.178 38.8444 122.455 39.0234 122.943 39.2188L123.138 39.3652C122.78 38.8118 122.487 38.5189 122.259 38.4863ZM125.677 38.6816H125.628V38.7305C125.628 38.8607 125.97 39.0072 126.654 39.1699L126.703 39.1211V39.0234C126.279 38.7956 125.938 38.6816 125.677 38.6816ZM128.558 39.2188H128.412V39.3652H128.558V39.2188ZM133.636 39.9512C133.962 39.9512 134.222 39.707 134.417 39.2188H134.271C133.848 39.4466 133.636 39.6908 133.636 39.9512ZM130.218 40.4395L129.193 40.3418H128.998C128.705 40.3418 128.542 40.4069 128.509 40.5371V40.6348L128.705 40.7812H129.583C130.593 40.7812 131.781 40.6022 133.148 40.2441C133.083 40.0488 132.888 39.9512 132.562 39.9512H132.318C131.537 39.9512 130.837 40.1139 130.218 40.4395ZM160.443 9.67773C161.257 9.67773 163.112 10.0358 166.009 10.752C166.335 10.9798 166.498 11.1914 166.498 11.3867C166.205 12.6888 166.058 14.3164 166.058 16.2695L166.302 21.1035C166.302 24.0658 166.139 27.2884 165.814 30.7715L165.716 33.2129V33.5059C165.716 33.9941 165.765 34.4661 165.863 34.9219H165.96C166.253 34.7591 167.067 33.0176 168.402 29.6973C169.313 27.6139 170.062 25.612 170.648 23.6914C171.136 23.3008 171.543 22.666 171.869 21.7871L172.015 21.6895H172.162C172.682 21.9173 173.35 22.0801 174.164 22.1777C174.88 22.1777 175.433 24.9772 175.824 30.5762C176.117 32.7572 176.377 33.8477 176.605 33.8477C176.8 33.8477 177.272 32.4316 178.021 29.5996C178.477 28.1022 179.03 25.9701 179.681 23.2031C180.267 21.1198 180.82 18.0762 181.341 14.0723C181.439 13.7793 181.618 12.4609 181.878 10.1172C182.399 10.0195 183.278 9.9707 184.515 9.9707H185.443C186.94 9.9707 187.835 10.1986 188.128 10.6543L188.373 11.2402L188.275 11.6309C188.275 13.8118 188.226 15.1139 188.128 15.5371H188.031C187.217 15.4395 186.696 15.3906 186.468 15.3906H186.419C185.866 15.3906 185.508 15.8301 185.345 16.709C183.685 21.9824 182.676 26.0189 182.318 28.8184C182.09 29.6322 181.895 31.0482 181.732 33.0664C180.983 37.0378 180.56 39.0885 180.462 39.2188C180.104 39.5768 179.356 39.8698 178.216 40.0977C175.938 40.1302 174.75 39.9837 174.652 39.6582L173.773 36.7773C173.22 34.6615 172.943 33.2129 172.943 32.4316C172.682 30.9342 172.438 29.974 172.21 29.5508C172.048 29.5508 171.641 30.5111 170.99 32.4316C170.176 34.1569 169.59 35.6055 169.232 36.7773L168.841 37.9492C168.418 38.4701 168.207 38.8281 168.207 39.0234V39.1699L168.353 39.6582C168.353 40.0163 166.888 40.2604 163.958 40.3906C163.698 40.3255 163.568 40.2604 163.568 40.1953L163.666 39.9023C163.373 39.9023 163.063 39.1536 162.738 37.6562C162.38 35.8008 162.201 34.0918 162.201 32.5293V25.6934L161.566 20.0293L161.468 16.709L161.517 15.9766C161.354 15.5208 160.964 15.293 160.345 15.293C159.206 15.1953 158.636 14.9186 158.636 14.4629C158.766 14.0072 158.929 12.7376 159.125 10.6543C159.19 10.459 159.417 10.2474 159.808 10.0195C159.938 9.79167 160.15 9.67773 160.443 9.67773ZM186.468 10.459L182.904 10.5566C182.513 10.5892 182.318 10.6706 182.318 10.8008V10.8984C182.318 10.9961 182.367 11.0449 182.464 11.0449L186.566 10.6055V10.459H186.468ZM162.738 11.5332L162.884 11.6309L163.568 11.4355H163.861C164.056 11.5332 164.251 11.9238 164.447 12.6074L164.789 12.6562H164.886C165.309 12.6562 165.57 12.4447 165.667 12.0215V11.9727C165.667 11.8099 165.163 11.5658 164.154 11.2402H163.373C162.949 11.2728 162.738 11.3704 162.738 11.5332ZM160.785 14.4141V14.4629C160.817 14.5931 160.931 14.6582 161.126 14.6582H161.81L161.957 14.5605V14.3164C161.891 14.2188 161.761 14.1699 161.566 14.1699H161.322C161.029 14.1699 160.85 14.2513 160.785 14.4141ZM186.371 14.2676H186.175V14.3164H186.371V14.2676ZM163.861 15.9766H163.763V18.5156V18.9062C163.763 19.362 163.877 19.7689 164.105 20.127L164.007 20.2246V20.3223L164.154 20.4688H164.3L164.447 20.2246L164.007 15.9766L163.958 15.8789L163.861 15.9766ZM181.976 20.4199H181.878C181.651 21.2988 181.537 22.0312 181.537 22.6172V22.666H181.634C181.895 22.3079 182.025 21.6895 182.025 20.8105L181.976 20.4199ZM165.472 22.6172H165.326V22.666H165.472V22.6172ZM174.164 23.1543L174.066 23.252V23.9844L174.261 24.1797H174.359L174.505 24.082L174.31 23.1543H174.164ZM163.763 23.5449H163.666V24.4238L163.763 25.1562H163.958V24.7656L163.763 23.5449ZM174.261 24.4727L174.115 24.6191V25.1562C174.115 25.5469 174.245 26.4258 174.505 27.793H174.652V27.3535C174.652 25.4329 174.522 24.4727 174.261 24.4727ZM172.552 26.9141H172.308L172.21 27.0605L172.308 27.1094H172.357L172.552 26.9629V26.9141ZM179.974 29.6973L180.023 29.7949H180.121C180.251 29.6647 180.316 29.502 180.316 29.3066V29.2578H180.267C180.072 29.3555 179.974 29.502 179.974 29.6973ZM173.089 29.3555H173.041V29.6973C173.073 30.3158 173.171 30.625 173.333 30.625H173.382L173.529 30.5762C173.301 29.7624 173.154 29.3555 173.089 29.3555ZM179.681 31.5039L179.779 31.9922L179.193 33.3594H179.291C179.714 32.9036 179.925 32.4479 179.925 31.9922V31.4062C180.056 31.276 180.121 31.0807 180.121 30.8203V30.332H180.023C179.795 30.4622 179.681 30.8529 179.681 31.5039ZM170.404 31.8457H170.16L170.111 32.1387V32.2852H170.16L170.404 32.041V31.8457ZM178.46 32.1875L178.314 32.041C177.891 32.9199 177.679 33.4896 177.679 33.75V33.8477H177.777C178.233 33.1966 178.46 32.6432 178.46 32.1875ZM180.511 33.5547H180.658C180.788 33.5221 180.902 33.1152 181 32.334H180.902C180.641 32.6921 180.511 33.099 180.511 33.5547ZM175.531 33.9941H175.384V34.043C175.384 34.4987 175.449 34.7266 175.58 34.7266H175.677L175.531 33.9941ZM175.677 35.0684H175.482V36.2402C175.514 37.4447 175.694 38.0469 176.019 38.0469H176.263C176.491 38.0469 176.654 37.9655 176.751 37.8027V37.6074H176.361C175.938 37.6074 175.71 36.7611 175.677 35.0684ZM167.376 36.7773C167.376 37.0378 167.523 37.168 167.816 37.168L167.914 36.9727V36.2402H167.816C167.523 36.403 167.376 36.582 167.376 36.7773ZM178.07 37.7051V37.9004L178.216 38.0469H178.412C178.607 37.9492 178.705 37.7376 178.705 37.4121L178.558 37.2656H178.509C178.314 37.3958 178.167 37.5423 178.07 37.7051ZM179.388 39.1211V39.2188H179.437C179.665 39.2188 179.844 38.8607 179.974 38.1445V37.9004H179.925C179.763 37.9004 179.583 38.3073 179.388 39.1211ZM164.496 37.6562V37.7051L164.837 38.0469H165.082L165.179 37.6074V37.2656C165.179 37.2005 165.114 37.168 164.984 37.168C164.658 37.2656 164.496 37.4284 164.496 37.6562ZM167.083 37.998C167.311 38.1283 167.556 38.1934 167.816 38.1934H167.865L167.962 38.0957V38.0469C167.962 37.7214 167.816 37.5586 167.523 37.5586C167.23 37.6562 167.083 37.8027 167.083 37.998ZM175.189 38.7793V38.877C175.189 38.9746 175.303 39.0234 175.531 39.0234C175.661 38.9909 175.775 38.9258 175.873 38.8281C175.84 38.6328 175.694 38.5352 175.433 38.5352C175.27 38.6328 175.189 38.7142 175.189 38.7793ZM176.849 39.2676L177.044 39.3652H177.484C177.809 39.3652 177.988 39.3164 178.021 39.2188V39.1211L177.63 39.0234H177.337C177.077 39.0234 176.914 39.1048 176.849 39.2676ZM174.994 39.8535H175.14C175.466 39.8535 175.677 39.7559 175.775 39.5605L175.628 39.4141H175.384C175.124 39.5768 174.994 39.7233 174.994 39.8535ZM166.156 39.1699V39.2188H167.474L167.718 39.1699V38.9258H167.376C166.563 38.9258 166.156 39.0072 166.156 39.1699ZM164.837 39.0723L164.642 39.2676L164.789 39.3652H164.984L165.228 39.2188L165.082 39.0723H164.837ZM162.787 39.9023V39.8047H162.933V40L162.787 39.9023ZM193.304 5.52734L194.964 5.2832C196.104 5.2832 196.999 5.86914 197.65 7.04102L197.992 8.60352C197.927 9.22201 197.569 10.0358 196.917 11.0449C196.494 11.4681 195.843 11.6797 194.964 11.6797C192.914 11.6797 191.644 11.3704 191.156 10.752C190.667 10.1009 190.44 9.18945 190.472 8.01758C190.342 8.01758 190.277 7.98503 190.277 7.91992V7.82227C191.253 6.29232 192.263 5.52734 193.304 5.52734ZM192.328 6.74805V6.79688C193.434 6.66667 193.988 6.52018 193.988 6.35742L193.744 6.25977C192.8 6.42253 192.328 6.58529 192.328 6.74805ZM193.158 8.16406H193.207L193.5 8.21289H193.597C193.955 8.21289 194.183 8.08268 194.281 7.82227L194.232 7.72461H193.646C193.386 7.72461 193.223 7.87109 193.158 8.16406ZM196.673 7.72461L196.527 7.96875V8.16406H196.576L196.722 7.96875V7.72461H196.673ZM195.501 9.33594V9.48242H195.697C195.925 9.48242 196.104 9.36849 196.234 9.14062V8.99414H196.136C195.908 8.99414 195.697 9.10807 195.501 9.33594ZM194.427 10.2148L194.281 10.3613V10.459H195.16L195.306 10.3613L195.16 10.2148H194.427ZM188.226 14.8535H188.373C188.633 15.0814 188.958 15.1953 189.349 15.1953L189.984 14.9023C194.411 14.9023 196.625 15.0326 196.625 15.293L196.673 15.6348V16.4648C196.966 17.1159 197.113 17.7344 197.113 18.3203V19.1016C196.722 24.4076 196.462 28.7044 196.332 31.9922C196.266 32.1875 196.201 32.5293 196.136 33.0176C196.169 33.1478 196.315 33.2129 196.576 33.2129H196.722C198.48 33.2129 199.359 33.4245 199.359 33.8477L199.31 33.9453V34.2383C199.701 35.0195 199.896 36.2565 199.896 37.9492L200.091 39.9023L199.945 40L197.796 40.0977H192.914C189.268 40.0977 187.445 39.8047 187.445 39.2188C187.445 38.8607 187.347 38.5026 187.152 38.1445C187.25 37.9167 187.412 37.7376 187.64 37.6074H187.787C187.917 37.7376 188.063 37.8027 188.226 37.8027H188.324C189.268 37.8027 190.391 37.7214 191.693 37.5586V37.4609C188.893 37.2656 187.494 37.0378 187.494 36.7773L187.445 36.3867V35.8496L187.347 34.5801C187.347 34.2546 188.568 34.0918 191.009 34.0918C191.335 34.0918 191.498 33.3594 191.498 31.8945L192.083 19.0527H191.986C191.074 19.0527 190.619 18.9876 190.619 18.8574C190.619 18.8249 190.667 18.776 190.765 18.7109C188.812 18.7109 187.835 18.4831 187.835 18.0273C187.705 17.9948 187.64 17.8646 187.64 17.6367L187.884 17.0508C187.884 16.9206 187.787 16.7415 187.591 16.5137C187.852 16.2533 188.031 15.7324 188.128 14.9512L188.226 14.8535ZM189.007 15.8301V16.0254H189.251C190.098 16.0254 190.521 15.9603 190.521 15.8301L190.423 15.6348H190.277C189.431 15.6348 189.007 15.6999 189.007 15.8301ZM195.648 15.4883L195.501 15.6348L195.697 15.7812H195.794V15.6348L195.648 15.4883ZM190.082 16.5137H189.203V16.6602C189.203 16.7904 189.431 16.8555 189.886 16.8555H190.423H190.57H192.181C192.669 16.8555 192.914 16.7741 192.914 16.6113V16.5625C192.914 16.3997 191.97 16.3835 190.082 16.5137ZM194.427 16.5625L193.988 16.5137V16.6113C194.216 16.6113 194.492 16.7741 194.818 17.0996H194.916C194.981 17.0996 195.013 17.0508 195.013 16.9531H195.111C195.241 16.9531 195.322 17.0996 195.355 17.3926H195.453L196.136 16.9043V16.6113L195.111 16.5625H194.427ZM194.232 19.2969L194.476 20.0293L194.134 20.9082C194.264 21.2012 194.378 21.3477 194.476 21.3477H194.525L194.623 21.0547V20.7617C194.623 19.5898 194.802 19.0039 195.16 19.0039L195.306 18.8086V18.6133L195.16 18.4668H194.867C194.444 18.4668 194.232 18.7435 194.232 19.2969ZM192.718 23.9355L192.572 30.2344C192.604 30.4622 192.653 30.5762 192.718 30.5762C192.816 30.5762 192.881 30.4297 192.914 30.1367L192.865 29.4043C193.028 29.2415 193.207 28.5905 193.402 27.4512V27.1582L193.304 26.4746C193.5 26.3118 193.597 26.1979 193.597 26.1328C193.467 25.7747 193.402 25.4167 193.402 25.0586V24.9609C193.532 24.9609 193.695 23.138 193.89 19.4922C193.792 19.2318 193.695 19.1016 193.597 19.1016C193.109 19.1016 192.816 20.7129 192.718 23.9355ZM195.111 19.6387L194.916 19.6875V19.9805C194.916 20.1758 194.997 20.3223 195.16 20.4199H195.306L195.453 20.2246V19.9805C195.388 19.8177 195.274 19.7038 195.111 19.6387ZM194.867 27.5977H194.623C194.362 28.8021 194.232 29.6973 194.232 30.2832H194.281C194.444 30.2832 194.655 29.6159 194.916 28.2812V27.9395L194.867 27.5977ZM193.939 32.1875V32.5293H194.037C194.199 32.4642 194.281 32.2689 194.281 31.9434V31.6016H194.134C194.069 31.6016 194.004 31.7969 193.939 32.1875ZM194.037 32.9199L193.89 33.1152V33.3594H194.037L194.232 33.2129V33.0664L194.085 32.9199H194.037ZM197.943 34.0918L197.796 34.1406C197.992 34.3034 198.35 34.401 198.871 34.4336V34.2871C198.871 34.1569 198.659 34.0918 198.236 34.0918H197.943ZM198.138 36.1426L197.552 36.2891C197.617 36.6797 197.91 36.875 198.431 36.875H198.578V36.7285L198.48 36.582C198.48 36.5495 198.61 36.4518 198.871 36.2891V36.0449C198.871 35.8171 198.806 35.6868 198.675 35.6543H198.48C198.382 35.6868 198.268 35.8496 198.138 36.1426ZM188.812 35.7031L188.47 35.8008V35.8496C188.731 36.11 189.74 36.2565 191.498 36.2891H191.839C192.1 36.2891 192.263 36.2077 192.328 36.0449V35.9473C190.96 35.7845 189.789 35.7031 188.812 35.7031ZM193.402 36.2891L193.597 36.5332C193.89 36.5332 194.037 36.3704 194.037 36.0449H193.792C193.597 36.0449 193.467 36.1263 193.402 36.2891ZM197.992 37.2656L197.845 37.4609V37.5586H197.943L198.089 37.3633V37.2656H197.992ZM194.232 37.5586L193.597 37.6074H192.914V37.8027L193.597 37.8516L195.013 37.7539V37.6074H194.818L194.232 37.5586ZM199.212 39.2188L199.017 39.3652V39.5117H199.31L199.359 39.3652L199.31 39.2188H199.212ZM212.25 0.742188C212.966 0.742188 213.552 0.9375 214.007 1.32812C213.617 2.36979 213.356 4.01367 213.226 6.25977L212.787 10.752C212.787 10.9798 213.438 11.0938 214.74 11.0938C218.581 11.0938 220.501 11.2728 220.501 11.6309C220.664 11.6309 220.86 11.7285 221.087 11.9238C220.762 12.347 220.599 12.6562 220.599 12.8516V12.998L220.746 13.9746L220.111 16.123C220.111 16.3509 220.355 16.6764 220.843 17.0996V17.1973C220.062 17.4577 219.427 17.5879 218.939 17.5879C218.418 17.5553 218.158 17.474 218.158 17.3438V17.2461L218.597 17.1973H218.939L219.134 17.002V16.9043L218.939 16.8555L215.667 16.9043L212.982 16.8555C212.819 16.8555 212.64 17.7669 212.445 19.5898H212.396L211.712 18.8086L211.566 19.3457V19.6387C211.598 20.5501 211.712 21.0384 211.908 21.1035C212.038 21.1035 212.152 20.8105 212.25 20.2246V19.8828H212.396L212.445 20.0293L212.103 24.7168C212.494 31.4551 212.835 34.8242 213.128 34.8242C213.291 35.8659 213.698 36.3867 214.349 36.3867C214.707 36.6146 215.147 36.7285 215.667 36.7285H216.546L219.476 36.582C219.541 36.582 219.655 37.4447 219.818 39.1699C219.883 39.6908 219.769 40.0651 219.476 40.293C219.216 40.5534 218.76 40.6836 218.109 40.6836L214.349 40.7812C212.298 40.7812 210.573 40.2116 209.173 39.0723C208.262 38.7467 207.806 37.7702 207.806 36.1426C207.741 35.2637 207.627 32.6595 207.464 28.3301L208.05 21.6895L208.197 18.8086V18.418C207.969 17.0508 207.578 16.3672 207.025 16.3672H205.56H203.851C203.363 16.3672 202.875 16.4811 202.386 16.709C202.061 16.6764 201.654 16.237 201.166 15.3906L202.142 11.0449C202.142 10.9147 204.111 10.8333 208.05 10.8008C208.05 10.3776 208.278 9.84049 208.734 9.18945C208.864 4.11133 209.043 1.57227 209.271 1.57227V1.42578C209.271 1.36068 209.19 1.32812 209.027 1.32812V1.18164C209.027 1.08398 210.101 0.9375 212.25 0.742188ZM210.394 2.06055H210.345V2.35352H210.492V2.1582L210.394 2.06055ZM212.494 2.1582L212.298 2.35352V2.45117L212.445 3.57422H212.542C212.933 3.18359 213.128 2.8418 213.128 2.54883V2.35352L212.982 2.1582H212.494ZM210.736 3.96484L210.589 3.81836C210.524 4.14388 210.492 4.56706 210.492 5.08789V5.2832H210.589L210.736 4.45312V3.96484ZM210.882 6.01562H210.785L210.589 10.8496V10.8984L210.736 11.0449H210.833C211.061 11.0449 211.175 10.638 211.175 9.82422V8.70117L211.078 6.30859C211.013 6.11328 210.947 6.01562 210.882 6.01562ZM202.435 11.6309C202.435 11.8587 202.582 11.9727 202.875 11.9727H203.607C204.942 11.9727 206.179 11.9076 207.318 11.7773V11.6797C207.318 11.5169 206.52 11.4355 204.925 11.4355H202.875C202.582 11.4355 202.435 11.5007 202.435 11.6309ZM217.669 11.4355L217.035 11.6797H216.449H215.619V11.8262C216.335 12.0215 216.953 12.1191 217.474 12.1191H218.597C218.662 12.1191 218.695 12.0703 218.695 11.9727C218.63 11.6146 218.451 11.4355 218.158 11.4355H217.669ZM219.037 11.9238L218.89 12.0215V12.1191L219.037 12.168C219.362 12.168 219.541 12.1029 219.574 11.9727V11.9238H219.037ZM203.216 12.5586L203.119 12.6562V12.9492C203.119 13.2747 204.209 13.4375 206.39 13.4375C207.497 13.4375 208.05 13.3561 208.05 13.1934C208.05 12.8027 206.618 12.5911 203.753 12.5586H203.216ZM213.617 12.998L213.47 13.1445V13.1934C213.47 13.3561 214.056 13.4538 215.228 13.4863L216.058 13.4375L217.181 13.6328H217.376C217.604 13.6328 217.718 13.5352 217.718 13.3398H217.669L213.958 12.998H213.617ZM218.89 14.0723L218.695 14.2676V14.3164L218.89 14.4629H219.134C219.427 14.4629 219.606 14.3652 219.671 14.1699L219.525 14.0723H218.89ZM203.656 14.2676L203.46 14.4141C203.46 14.5443 203.542 14.6094 203.705 14.6094L204.925 14.6582L206.244 14.6094L206.292 14.5605V14.4629C205.902 14.3327 205.169 14.2676 204.095 14.2676H203.656ZM207.464 15.1953L203.46 15.0488V15.1465C203.46 15.3743 204.697 15.4883 207.171 15.4883L207.562 15.3906V15.3418L207.464 15.1953ZM214.447 15.3418H214.203V15.4883C214.235 15.5534 214.805 15.7161 215.912 15.9766H216.009V15.8789C215.488 15.5208 214.968 15.3418 214.447 15.3418ZM216.937 15.8301C217.816 16.123 218.597 16.2695 219.281 16.2695L219.476 16.0742V15.7812L219.33 15.6348H218.255C217.376 15.6348 216.937 15.6999 216.937 15.8301ZM210.15 17.5879V17.9785L210.296 18.125C210.427 18.0924 210.492 17.9785 210.492 17.7832V17.5879L210.394 17.2461H210.345C210.215 17.2786 210.15 17.3926 210.15 17.5879ZM211.957 18.4668L211.712 18.2715V18.418L211.908 18.6133H211.957V18.4668ZM210.394 18.5645H210.296L210.248 18.8086V19.0527L210.296 19.3457H210.492V18.9062V18.6621L210.394 18.5645ZM210.492 21.9336H210.345V22.3242L210.492 22.5195H210.589V22.3242L210.492 21.9336ZM208.148 28.1348L208.294 29.502L208.246 31.2109L208.294 31.6992H208.441C208.636 31.6992 208.734 30.9342 208.734 29.4043V28.2812C208.734 26.7839 208.669 26.0352 208.539 26.0352C208.311 26.0352 208.181 26.735 208.148 28.1348ZM211.322 31.9922H211.224L211.175 32.334V32.7246C211.175 32.9525 211.24 33.0827 211.371 33.1152H211.468C211.598 33.0827 211.664 32.9688 211.664 32.7734C211.631 32.2526 211.517 31.9922 211.322 31.9922ZM211.712 34.0918L211.517 34.6289C211.517 35.3776 211.68 35.8496 212.005 36.0449L212.103 35.8496V35.4102C212.07 34.5964 211.94 34.1569 211.712 34.0918ZM209.808 34.4336H209.662V35.166L209.759 35.459H209.808L209.906 35.3613V34.5312L209.808 34.4336ZM211.224 37.5098V37.5586V37.8516C211.257 37.9818 211.371 38.112 211.566 38.2422H211.908V38.1445C211.908 37.7865 211.68 37.5749 211.224 37.5098ZM216.644 38.4863H216.839C218.044 38.291 218.646 38.0794 218.646 37.8516L218.548 37.7539C217.279 38.0794 216.644 38.3236 216.644 38.4863ZM210.003 37.8027H209.906V37.998C210.003 38.8118 210.361 39.2188 210.98 39.2188H211.468L211.566 39.0723V39.0234C211.566 38.9583 211.273 38.8444 210.687 38.6816L210.003 37.8027ZM224.457 4.25781L225.433 4.20898C229.6 4.37174 231.683 4.74609 231.683 5.33203L232.025 12.5098C232.025 13.1608 231.667 14.8047 230.951 17.4414C230.788 18.4831 230.707 19.1667 230.707 19.4922V19.7852H230.853C233.034 18.0924 235.524 17.2461 238.324 17.2461C239.138 17.2461 240.635 17.7181 242.816 18.6621C243.239 18.9876 243.776 19.6549 244.427 20.6641C244.655 20.7943 244.802 21.0059 244.867 21.2988L244.818 21.7871C245.729 22.5033 246.185 23.7891 246.185 25.6445C246.283 25.6445 246.364 27.2396 246.429 30.4297V30.5273C246.429 31.1133 246.169 32.9036 245.648 35.8984L245.453 36.8262H246.478C247.552 36.8587 248.089 37.0052 248.089 37.2656C248.089 37.3958 247.569 37.5098 246.527 37.6074C246.527 37.7376 246.901 37.8841 247.65 38.0469L247.845 38.3398V38.4375C247.227 38.5352 246.917 38.6165 246.917 38.6816C247.536 38.8118 247.845 39.0234 247.845 39.3164C247.845 40.8464 247.406 41.6113 246.527 41.6113L246.136 41.6602C244.867 41.6602 244.232 41.4811 244.232 41.123C244.232 41.0254 243.565 40.944 242.23 40.8789C241.644 40.5534 241.172 40.3418 240.814 40.2441L240.765 40.0488C240.765 38.6165 240.977 36.5332 241.4 33.7988C241.563 32.2038 241.856 30.5111 242.279 28.7207L242.181 27.0117L242.328 26.7676C241.904 26.4421 241.693 25.9701 241.693 25.3516C241.302 24.668 240.977 24.1309 240.716 23.7402C239.577 23.252 238.893 23.0078 238.666 23.0078C237.005 22.4544 235.378 22.5195 233.783 23.2031C231.667 24.6354 230.609 25.6934 230.609 26.377L230.316 29.5508L230.414 32.8223C230.218 35.2311 229.974 36.4355 229.681 36.4355L229.632 36.6797L229.828 36.7285H230.023L230.853 36.3867C231.634 36.5169 232.025 36.7773 232.025 37.168L231.683 37.4609V37.6562C231.716 37.7539 231.927 37.8678 232.318 37.998L232.416 38.2422C232.22 39.9349 231.976 40.7812 231.683 40.7812H231.537C231.113 40.4883 229.372 40.2604 226.312 40.0977C224.131 39.9023 223.041 39.5768 223.041 39.1211V38.3398C223.008 38.2096 223.106 37.9655 223.333 37.6074V37.3145C222.943 36.7611 222.748 36.4355 222.748 36.3379C222.91 36.2077 223.692 36.1263 225.091 36.0938C225.319 36.0938 225.482 35.459 225.58 34.1895C225.807 34.0592 226.003 33.5547 226.166 32.6758C226.361 32.4154 226.458 32.1387 226.458 31.8457V31.7969C226.458 31.276 226.296 30.7552 225.97 30.2344L226.458 29.0625C226.686 29.0625 226.817 25.498 226.849 18.3691L227.533 11.1914V9.04297C227.533 8.32682 227.305 7.96875 226.849 7.96875L225.238 7.91992L224.212 8.21289C224.05 8.21289 223.936 7.77344 223.871 6.89453V6.40625C223.871 4.97396 224.066 4.25781 224.457 4.25781ZM224.359 39.0234V39.1211H224.457C224.88 39.1211 225.677 39.3327 226.849 39.7559C228.639 39.7884 230.056 39.9023 231.097 40.0977H231.244L231.39 39.9023V39.8535C231.39 39.528 229.844 39.3652 226.751 39.3652C226.231 39.0397 225.58 38.877 224.798 38.877C224.505 38.9095 224.359 38.9583 224.359 39.0234ZM244.574 34.6289H244.72C244.948 34.6289 245.257 33.4082 245.648 30.9668C245.648 30.6087 245.534 30.3809 245.306 30.2832H245.111C244.916 30.2832 244.736 31.7318 244.574 34.6289ZM243.109 24.4727L243.402 23.6914C243.532 23.9518 243.613 24.1471 243.646 24.2773C243.776 24.5052 243.906 24.6191 244.037 24.6191V24.2285C244.037 23.5775 243.581 22.8125 242.669 21.9336L242.425 21.8848H242.23V22.0801C242.686 22.5358 243.06 23.0241 243.353 23.5449L242.914 24.2773L243.109 24.4727ZM228.607 12.8027C228.509 12.998 228.46 13.584 228.46 14.5605C228.851 14.5605 229.046 14.8535 229.046 15.4395H229.095C229.193 15.2441 229.242 14.9023 229.242 14.4141V13.7793H229.193L228.998 14.3164H228.802L228.753 14.0234C228.819 13.763 228.884 13.6328 228.949 13.6328L229.242 13.7305C229.177 13.5352 228.965 13.2259 228.607 12.8027ZM226.117 35.9473C226.117 36.1751 226.654 36.3379 227.728 36.4355H227.826L227.972 36.3379V35.9473C227.907 35.8496 227.777 35.8008 227.582 35.8008H226.605C226.279 35.8008 226.117 35.8496 226.117 35.9473ZM241.595 38.4375H241.693L242.181 38.4863L243.695 38.4375L243.744 38.3887V38.3398C243.418 38.112 242.897 37.998 242.181 37.998C241.888 37.998 241.693 38.1445 241.595 38.4375ZM223.822 37.4609V37.6074H224.164H225.873C225.873 37.347 225.368 37.2005 224.359 37.168C224.033 37.168 223.854 37.2656 223.822 37.4609ZM237.738 21.3477L237.396 21.3965V21.6406C238.112 21.9987 238.568 22.1777 238.763 22.1777L238.958 21.9336C238.958 21.7383 238.552 21.543 237.738 21.3477ZM225.531 4.94141V5.08789C225.921 5.38086 226.475 5.52734 227.191 5.52734L227.289 5.33203C226.605 5.07161 226.019 4.94141 225.531 4.94141ZM229.681 24.4238V24.8145H229.828C230.153 24.8145 230.365 24.5215 230.462 23.9355L230.511 23.8867V23.6426H230.462C230.235 23.7728 229.974 24.0332 229.681 24.4238ZM230.169 5.18555L229.974 5.42969C230.072 5.59245 230.218 5.72266 230.414 5.82031H230.462C230.69 5.82031 230.837 5.73893 230.902 5.57617V5.47852L230.707 5.18555H230.169ZM241.839 39.6582H241.302V39.8047C241.335 40 241.546 40.0977 241.937 40.0977H242.425V39.9512C242.425 39.8535 242.23 39.7559 241.839 39.6582ZM230.511 37.6074L230.414 37.6562V37.9004L230.707 38.1445H230.951L231.195 37.9492V37.9004L230.853 37.6074H230.511ZM226.507 6.69922L226.263 6.74805V6.8457C226.296 6.94336 226.41 6.99219 226.605 6.99219H226.996L227.289 6.89453V6.74805L226.996 6.69922H226.507ZM242.621 36.7285V36.9238H243.011L243.158 36.8262V36.582L243.011 36.4355C242.816 36.4355 242.686 36.5332 242.621 36.7285ZM230.218 25.3027L230.365 25.4492H230.707C230.902 25.4492 231.016 25.4004 231.048 25.3027L230.902 25.1562H230.707C230.446 25.1562 230.283 25.2051 230.218 25.3027ZM241.4 18.8574V19.0039C241.53 19.2318 241.774 19.3457 242.132 19.3457V19.1992C242.002 18.9714 241.758 18.8574 241.4 18.8574ZM240.521 22.5684V22.666C240.521 22.959 240.684 23.1055 241.009 23.1055V23.0566C240.977 22.7311 240.814 22.5684 240.521 22.5684ZM229.095 9.87305L228.998 10.0195V10.3613L229.095 10.5078L229.291 10.3613V10.0684L229.095 9.87305ZM226.117 5.91797H225.97V5.9668L226.019 6.16211H226.654V5.9668L226.117 5.91797ZM232.123 21.7871H232.269C232.627 21.5267 232.806 21.3639 232.806 21.2988H232.66C232.334 21.4616 232.155 21.6243 232.123 21.7871ZM245.111 23.1543L244.964 23.3008V23.3984L245.257 23.5938H245.355L245.453 23.4961L245.208 23.1543H245.111ZM238.812 17.7832H238.763V17.832C238.763 17.9297 238.975 18.0273 239.398 18.125V18.0762C239.398 17.9134 239.203 17.8158 238.812 17.7832ZM229.046 11.3379L228.949 11.4844V11.6309L229.095 11.7773L229.291 11.7285V11.582L229.095 11.3379H229.046ZM236.468 20.4199H236.126V20.5176L236.273 20.6641H236.615V20.5664L236.468 20.4199ZM234.222 22.666L234.027 22.8613V23.0078H234.173L234.369 22.8125V22.666H234.222ZM241.693 38.9746L241.546 39.1211V39.1699L241.693 39.3164H241.791L241.839 39.1211L241.693 38.9746ZM224.798 5.57617H224.75V5.9668H224.798L224.945 5.82031V5.67383L224.798 5.57617ZM245.453 29.4531L245.306 29.5508L245.453 29.6973H245.55V29.5508L245.453 29.4531ZM230.902 37.0215H230.707V37.168H230.902V37.0215ZM236.859 21.8848L236.761 21.9824H236.957V21.8848H236.859ZM243.451 23.5449L243.402 23.6426C243.337 23.6426 243.337 23.61 243.402 23.5449L243.451 23.4961V23.5449ZM268.304 9.53125L270.208 9.28711C271.999 9.61263 272.894 9.93815 272.894 10.2637C273.317 10.459 273.708 10.8822 274.066 11.5332C274.912 12.1842 275.889 13.9258 276.996 16.7578L278.509 19.541C279.095 21.6569 279.535 22.7148 279.828 22.7148C280.218 22.7148 280.869 21.6732 281.781 19.5898C282.888 17.3112 284.483 14.528 286.566 11.2402C287.184 11.0124 287.494 10.7682 287.494 10.5078C287.689 10.0521 287.949 9.75911 288.275 9.62891L288.91 9.67773C289.398 9.51497 289.903 9.40104 290.423 9.33594C292.637 9.62891 293.744 9.9707 293.744 10.3613V10.4102L293.841 21.8359L293.744 25.0098C293.906 26.3444 294.183 29.7786 294.574 35.3125L294.476 35.8496C294.736 36.0124 295.143 36.0938 295.697 36.0938C296.38 36.1914 296.722 36.5007 296.722 37.0215V37.3145C296.722 39.4629 296.592 40.5371 296.332 40.5371H296.234C295.713 40.2767 295.176 40.1465 294.623 40.1465H291.742C288.747 40.1465 287.25 39.8372 287.25 39.2188L287.396 37.998V37.8027C287.396 37.6725 287.282 37.4447 287.054 37.1191V36.8262C287.054 36.6634 287.591 36.4844 288.666 36.2891L288.958 35.9473L288.812 35.6543V34.9219C288.812 34.4336 288.975 33.6361 289.3 32.5293L289.496 32.2852C289.268 32.0247 289.154 30.6901 289.154 28.2812V25.3027L289.203 23.8379C289.072 23.4798 289.007 23.0078 289.007 22.4219V21.6895C289.007 20.9733 289.105 19.9805 289.3 18.7109C289.3 18.3203 289.463 17.7995 289.789 17.1484L289.837 16.8555C289.61 15.7487 289.496 14.9512 289.496 14.4629H289.349C288.796 15.0163 287.917 16.237 286.712 18.125C285.345 20.6966 284.108 22.7474 283.001 24.2773L281.048 27.0605C280.853 27.3535 280.576 27.5 280.218 27.5L279.632 27.2559C279.307 27.321 279.063 27.4023 278.9 27.5C278.509 27.5 278.281 27.1257 278.216 26.377C277.858 25.6283 277.354 24.8796 276.703 24.1309C276.182 23.5124 275.189 21.6569 273.724 18.5645L273.187 17.5879L272.552 16.4648L272.601 16.416H272.894C273.057 16.416 273.187 16.6276 273.285 17.0508L273.333 17.1484H273.48V16.9531C273.48 15.9766 273.024 15.0977 272.113 14.3164H271.966V14.5605H271.576V14.8535L271.527 15.3418V15.8301C272.048 22.9915 272.308 29.1439 272.308 34.2871C272.243 34.4499 272.129 34.5312 271.966 34.5312C271.836 34.5312 271.771 34.3522 271.771 33.9941L271.673 33.9453H271.576L271.429 34.9707C271.852 35.1986 272.064 35.4753 272.064 35.8008L271.966 36.3867C271.445 36.3867 271.185 36.2728 271.185 36.0449H271.039L270.892 36.2891V36.5332C270.892 36.6634 271.543 36.875 272.845 37.168H273.041C273.268 37.168 273.513 37.1191 273.773 37.0215C275.108 37.2819 275.775 37.526 275.775 37.7539V37.9492L275.482 37.998C275.254 37.998 274.912 37.819 274.457 37.4609H274.212C273.431 37.5586 273.041 37.6888 273.041 37.8516C273.073 37.9818 273.187 38.0469 273.382 38.0469H274.066C275.042 38.1445 275.531 38.3236 275.531 38.584L275.628 39.0723V39.3652C275.628 39.7884 275.287 40.0326 274.603 40.0977C274.115 39.8698 273.61 39.7559 273.089 39.7559V39.8047C273.089 39.9023 273.252 39.9512 273.578 39.9512C274.001 40.0488 274.212 40.1465 274.212 40.2441L273.675 40.293C272.699 40.293 270.746 40.1139 267.816 39.7559L266.595 40.0977C266.009 39.9674 265.716 39.7233 265.716 39.3652V39.0723C265.326 39.0723 265.065 38.6654 264.935 37.8516L264.886 37.7539V37.5098C265.244 36.8587 265.895 36.5332 266.839 36.5332C267.653 36.3379 268.06 36.1914 268.06 36.0938V36.0449L267.23 13.4375L267.328 11.3379L267.132 10.5566C267.132 9.87305 267.523 9.53125 268.304 9.53125ZM271.771 12.5098C272.162 13.2259 272.796 14.0723 273.675 15.0488L275.482 18.6621H275.628C275.628 18.1087 274.994 16.4648 273.724 13.7305C273.724 13.5026 273.399 13.0957 272.748 12.5098L272.65 12.2168H272.357C271.966 12.2493 271.771 12.347 271.771 12.5098ZM270.941 27.8418C270.876 28.0371 270.843 28.2487 270.843 28.4766V31.2109L270.892 33.7988L270.941 33.8965H271.039C271.364 33.8965 271.576 33.6686 271.673 33.2129V32.9199C271.543 32.9199 271.445 32.7409 271.38 32.3828L271.429 31.5039V31.4551C271.429 30.6738 271.348 30.0879 271.185 29.6973L271.332 29.0137C271.299 28.2975 271.169 27.9069 270.941 27.8418ZM283.246 19.6875L283.343 19.7852C283.604 19.6224 283.945 19.0527 284.369 18.0762C284.662 17.7832 284.922 17.2135 285.15 16.3672V16.2695L284.955 16.1719C284.499 16.1719 283.929 17.3438 283.246 19.6875ZM292.621 19.6875C292.686 21.8034 292.832 22.9102 293.06 23.0078L293.158 22.9102V21.3477C293.158 20.1107 293.109 19.1829 293.011 18.5645H292.865C292.702 18.5645 292.621 18.9388 292.621 19.6875ZM270.746 21.8359C270.811 23.5612 270.925 24.4238 271.087 24.4238H271.185V23.7891C271.185 22.7799 271.153 21.7546 271.087 20.7129H271.039C270.908 20.7129 270.811 21.0872 270.746 21.8359ZM270.013 14.4629H269.769L269.72 14.7559V16.4648C269.72 17.0508 269.802 17.3438 269.964 17.3438C270.127 17.3438 270.208 16.9206 270.208 16.0742C270.208 15.3906 270.143 14.8535 270.013 14.4629ZM293.158 32.2852C292.962 32.4805 292.865 32.8548 292.865 33.4082V34.1406L293.06 34.4336H293.353C293.451 34.4336 293.516 34.2708 293.548 33.9453C293.418 32.8385 293.288 32.2852 293.158 32.2852ZM268.89 29.6484L268.939 29.6973C269.232 29.6973 269.378 29.209 269.378 28.2324V26.6699L269.33 26.377C269.167 26.377 269.02 27.4674 268.89 29.6484ZM268.158 11.9238L268.109 11.9727V12.0215C268.239 13.5189 268.386 14.2676 268.548 14.2676C268.679 14.0397 268.744 13.7467 268.744 13.3887V12.998C268.744 12.3145 268.548 11.9564 268.158 11.9238ZM265.716 37.1191L265.521 37.2656V37.5098C265.521 37.7376 265.716 38.0143 266.107 38.3398H266.205C266.302 38.3398 266.367 38.2259 266.4 37.998C266.367 37.4121 266.27 37.1191 266.107 37.1191H265.716ZM291.546 31.5039H291.351C291.123 32.0898 291.009 32.6107 291.009 33.0664C291.107 33.457 291.221 33.6523 291.351 33.6523H291.449L291.546 31.6016V31.5039ZM269.378 11.3379H269.33V11.6309C269.557 12.8353 269.785 13.4375 270.013 13.4375H270.16V13.2422L269.818 12.4121C269.818 11.9238 269.671 11.5658 269.378 11.3379ZM268.939 33.2129V33.9941L269.134 34.0918H269.232L269.378 33.0176L269.33 32.6758H269.232C269.102 32.6758 269.004 32.8548 268.939 33.2129ZM269.671 39.3164L269.378 39.4629C269.606 39.5931 269.883 39.6582 270.208 39.6582H270.355L270.843 39.5605V39.3652L269.671 39.3164ZM288.421 11.4844L288.47 11.5332C288.568 11.5332 288.796 11.3053 289.154 10.8496V10.5566H289.007C288.747 10.7194 288.552 11.0286 288.421 11.4844ZM269.232 24.7168H269.134V25.1562V25.2051C269.134 25.6934 269.199 25.9375 269.33 25.9375L269.476 25.4492C269.411 24.9609 269.33 24.7168 269.232 24.7168ZM288.373 37.6562L288.226 37.8516V38.0469L288.324 38.1445L289.007 37.998V37.8516C288.975 37.7214 288.861 37.6562 288.666 37.6562H288.373ZM268.646 18.6621H268.451V19.8828L268.597 19.9805H268.646L268.744 19.1992V19.0527L268.646 18.6621ZM280.902 23.8379H280.755C280.56 24.1309 280.462 24.3587 280.462 24.5215V24.6191H280.609C280.772 24.6191 280.869 24.4076 280.902 23.9844V23.8379ZM271.576 39.5605H271.234V39.6582L271.82 39.8047H272.601V39.6582L271.576 39.5605ZM270.648 10.8008L270.355 10.8496V10.9961C270.355 11.0612 270.485 11.1263 270.746 11.1914C270.941 11.1263 271.039 11.0612 271.039 10.9961V10.8984L270.892 10.8008H270.648ZM287.835 12.5098H287.933H287.982C288.177 12.2819 288.275 12.0866 288.275 11.9238V11.8262H288.226C287.966 11.9889 287.835 12.2168 287.835 12.5098ZM288.666 39.0723L288.324 39.1699V39.3164L288.47 39.3652H289.007V39.3164C288.942 39.1536 288.828 39.0723 288.666 39.0723ZM293.353 34.9219H292.914V35.0195L293.158 35.3125H293.255L293.5 35.1172V35.0195L293.353 34.9219ZM272.308 11.1914V11.2402H272.845L272.894 11.1914V11.0938L272.845 10.9961C272.52 10.9961 272.341 11.0612 272.308 11.1914ZM291.009 18.7109V18.8574L291.107 19.0039C291.237 18.9714 291.302 18.8574 291.302 18.6621V18.3691H291.205C291.074 18.4017 291.009 18.5156 291.009 18.7109ZM270.843 26.0352V26.2305L270.892 26.8652H271.039V26.5234C271.039 26.1979 270.973 26.0352 270.843 26.0352ZM271.38 35.4102L271.234 35.5078L271.38 35.6543H271.576L271.673 35.5078L271.576 35.4102H271.38ZM290.033 34.9219H289.886L289.837 35.2148V35.3125H289.984L290.033 35.166V34.9219ZM291.986 35.459L291.791 35.6543L291.888 35.8008H292.181V35.6543L291.986 35.459ZM291.009 20.0781H290.912V20.2734L291.009 20.5664H291.107V20.2246L291.009 20.0781ZM291.205 17.832H291.302C291.4 17.7669 291.449 17.6204 291.449 17.3926C291.286 17.4577 291.205 17.6042 291.205 17.832ZM291.693 29.1602H291.546L291.498 29.3066L291.693 29.4531L291.791 29.3066V29.2578L291.693 29.1602ZM291.644 34.4336H291.351V34.6289H291.498L291.644 34.4824V34.4336ZM266.4 39.0234H266.205V39.1699L266.302 39.3164L266.4 39.2188H266.449L266.4 39.0234ZM268.06 10.8496H267.914V10.9961L268.011 11.0938H268.06V10.8496ZM268.89 35.1172H268.792V35.3613H268.939V35.2148L268.89 35.1172ZM309.613 15.4883C310.98 15.4883 312.64 16.0742 314.593 17.2461C316.253 18.4831 317.083 19.3294 317.083 19.7852C318.386 22.5195 319.037 24.1634 319.037 24.7168L319.085 25.1074C318.597 26.2467 318.353 27.028 318.353 27.4512L318.06 27.5H313.91C313.519 27.5 313.047 27.5488 312.494 27.6465C307.806 27.2559 304.518 27.0605 302.63 27.0605H301.605C301.214 27.6465 301.019 28.0697 301.019 28.3301C301.247 28.6882 301.361 29.2578 301.361 30.0391C301.361 31.276 301.556 32.0085 301.947 32.2363L301.996 32.4805V32.5293L301.703 32.3828V32.5293L302.142 33.0176C302.142 33.4408 302.435 33.9779 303.021 34.6289C304.095 36.5169 305.267 37.6888 306.537 38.1445C307.611 38.5026 308.832 38.6816 310.199 38.6816C310.427 38.6816 310.899 38.4701 311.615 38.0469C312.201 37.9167 313.438 36.8587 315.326 34.873V34.7266C315.326 34.6615 315.098 34.5964 314.642 34.5312L314.544 34.2871C315.293 32.8548 316.188 31.9108 317.23 31.4551C317.523 31.748 318.125 32.2038 319.037 32.8223C319.753 33.929 320.713 35.2311 321.917 36.7285V36.9238C320.876 38.291 320.127 38.9746 319.671 38.9746H319.476C319.476 38.2585 319.037 37.8516 318.158 37.7539C317.995 37.7539 317.279 38.291 316.009 39.3652C315.261 39.9512 313.975 40.5046 312.152 41.0254C310.036 41.4486 308.539 41.6602 307.66 41.6602L304.876 40.6836C303.314 40.6836 301.882 39.8372 300.58 38.1445C300.026 37.5586 299.57 36.8587 299.212 36.0449C299.212 35.7845 298.854 34.4336 298.138 31.9922C297.91 31.0482 297.796 30.1367 297.796 29.2578V29.209C297.796 24.8796 299.098 21.0872 301.703 17.832C302.028 17.0182 302.777 16.416 303.949 16.0254C304.73 15.7975 305.674 15.6185 306.781 15.4883C307.074 15.3581 308.018 15.3581 309.613 15.4883ZM305.121 16.5137V16.5625H305.218C305.739 16.5625 306.716 16.3835 308.148 16.0254C308.441 15.9928 308.587 15.9115 308.587 15.7812L308.441 15.6348H308.392C307.448 15.6348 306.39 15.8952 305.218 16.416L305.121 16.5137ZM303.167 17.3438V17.3926L303.314 17.4902H303.363C304.014 17.3275 304.339 17.1647 304.339 17.002V16.709L304.144 16.5137H304.046C303.46 16.709 303.167 16.9857 303.167 17.3438ZM310.687 16.8555H309.222V16.9531C309.222 17.0833 309.889 17.181 311.224 17.2461H311.273V17.0508C311.273 16.9857 311.078 16.9206 310.687 16.8555ZM307.22 17.5879V17.6367C307.22 17.7669 307.888 17.9297 309.222 18.125L309.32 18.0762V17.8809C309.059 17.5228 308.62 17.3438 308.001 17.3438H307.855C307.432 17.3763 307.22 17.4577 307.22 17.5879ZM310.199 17.8809V17.9297C312.054 19.0039 313.047 19.541 313.177 19.541H313.226L313.714 19.3457L314.007 19.4434L314.056 19.3457V19.2969C313.926 19.1992 313.649 19.1016 313.226 19.0039L312.25 18.5645C311.989 18.0111 311.468 17.7344 310.687 17.7344H310.541C310.313 17.7669 310.199 17.8158 310.199 17.8809ZM304.388 19.2969C304.714 19.0365 305.365 18.7598 306.341 18.4668V18.3691L306.292 18.2715H305.804C304.86 18.5319 304.388 18.8737 304.388 19.2969ZM301.8 22.5195V22.666C301.8 23.0241 304.763 23.431 310.687 23.8867L311.175 24.0332L311.81 23.9844C313.112 24.4076 313.991 24.6191 314.447 24.6191C314.447 24.7168 314.544 24.7982 314.74 24.8633C314.935 24.5703 315.033 24.2936 315.033 24.0332V23.1055C315.033 22.6823 314.219 21.7383 312.591 20.2734C311.843 19.5247 310.996 19.1016 310.052 19.0039L308.392 18.7109C305.69 19.2643 303.916 19.9316 303.07 20.7129C302.712 21.3965 302.289 21.9987 301.8 22.5195ZM302.337 19.5898V19.6875H302.435C302.858 19.5898 303.07 19.4759 303.07 19.3457V19.2969H302.826C302.663 19.2969 302.5 19.3945 302.337 19.5898ZM314.007 20.2734C314.072 20.5339 314.219 20.6641 314.447 20.6641H314.544L314.642 20.5176V20.2246L314.447 19.9805C314.154 19.9805 314.007 20.0781 314.007 20.2734ZM301.41 20.5176L301.312 20.6641V20.7129H301.41L301.605 20.5664V20.5176H301.41ZM315.228 20.9082H315.033C315.391 21.9824 315.651 22.5684 315.814 22.666H316.009L316.156 22.5684C315.895 21.5267 315.619 21.0059 315.326 21.0059L315.228 20.9082ZM301.849 21.7871C302.044 21.7546 302.142 21.6243 302.142 21.3965V21.3477C301.947 21.4128 301.849 21.5592 301.849 21.7871ZM316.888 23.1055L316.742 23.2031V23.5449L316.888 23.7402C317.018 23.7077 317.083 23.5938 317.083 23.3984V23.2031L317.035 23.1055H316.888ZM301.312 23.7891V23.9844L301.41 24.082H301.507C301.735 23.9844 301.931 23.8053 302.093 23.5449V23.3984H301.849C301.654 23.3984 301.475 23.5286 301.312 23.7891ZM299.31 23.4961C299.05 23.7565 298.822 24.4076 298.626 25.4492H298.724C298.919 25.4492 299.212 24.8796 299.603 23.7402C299.538 23.5775 299.44 23.4961 299.31 23.4961ZM304.291 24.082V24.2285C304.909 24.6517 306.032 24.8633 307.66 24.8633H308.099L308.734 24.8145V24.6191C307.399 24.3262 305.918 24.1471 304.291 24.082ZM313.226 25.3516H313.08V25.498H313.226V25.3516ZM303.802 25.7422V25.8398C304.453 26.0026 306.179 26.1654 308.978 26.3281V26.377V26.4258L307.953 26.5723C307.953 26.6699 308.376 26.7188 309.222 26.7188C310.589 26.7188 311.273 26.6536 311.273 26.5234C311.273 26.1979 308.783 25.9375 303.802 25.7422ZM298.871 26.084H298.626V26.377C298.626 26.5723 298.675 26.6699 298.773 26.6699C298.936 26.6699 299.033 26.5072 299.066 26.1816L298.871 26.084ZM302.826 26.1816L302.582 26.2305V26.5234H302.826V26.3281V26.2305V26.1816ZM301.263 26.5723V26.6211H301.312L302.142 26.5234V26.4258L301.996 26.2305H301.849C301.556 26.2305 301.361 26.3444 301.263 26.5723ZM313.128 26.6699C313.128 26.8001 313.421 26.8652 314.007 26.8652L314.447 26.8164V26.7188C314.447 26.5885 314.138 26.5234 313.519 26.5234C313.259 26.5885 313.128 26.6374 313.128 26.6699ZM298.626 27.9395V28.0859V28.1348C298.594 28.2324 298.578 28.4603 298.578 28.8184V29.0137C298.578 29.5996 298.74 30.1204 299.066 30.5762H299.115C299.115 29.0137 298.952 28.1348 298.626 27.9395ZM299.505 32.1875H299.359V32.2852L299.505 32.3828H299.603V32.2852L299.505 32.1875ZM299.847 33.0176L299.798 33.0664V33.1641C299.929 33.6849 300.124 33.9453 300.384 33.9453V33.8965V33.7988C300.384 33.5384 300.205 33.278 299.847 33.0176ZM315.765 33.457L315.863 33.6035H316.107C316.302 33.6035 316.416 33.5384 316.449 33.4082L316.253 33.2129H316.205C315.977 33.2129 315.83 33.2943 315.765 33.457ZM314.642 36.2891L314.74 36.3379H314.789C315.147 36.3379 315.375 36.1263 315.472 35.7031V35.6055C315.114 35.6055 314.837 35.8333 314.642 36.2891ZM318.06 36.1914L318.109 36.2402H318.255C318.451 36.11 318.548 35.931 318.548 35.7031H318.402C318.174 35.8333 318.06 35.9961 318.06 36.1914ZM319.769 35.7031H319.72V35.8008C319.818 36.1914 319.964 36.3867 320.16 36.3867H320.208L320.306 36.2891V36.2402C320.241 35.8822 320.062 35.7031 319.769 35.7031ZM316.937 36.7285L317.083 36.8262C317.572 36.6634 317.816 36.4518 317.816 36.1914V36.0938H317.767C317.311 36.0938 317.035 36.3053 316.937 36.7285ZM313.128 37.8027H313.226C313.486 37.7051 313.633 37.5423 313.666 37.3145L313.617 37.2656C313.291 37.4609 313.128 37.64 313.128 37.8027ZM316.009 38.0469H316.205C316.53 37.7539 316.693 37.5423 316.693 37.4121H316.644C316.221 37.5423 316.009 37.7539 316.009 38.0469ZM302.142 38.4863H301.996V38.6816C302.061 38.8444 302.337 39.0234 302.826 39.2188L303.021 39.3652C302.663 38.8118 302.37 38.5189 302.142 38.4863ZM305.56 38.6816H305.511V38.7305C305.511 38.8607 305.853 39.0072 306.537 39.1699L306.585 39.1211V39.0234C306.162 38.7956 305.82 38.6816 305.56 38.6816ZM308.441 39.2188H308.294V39.3652H308.441V39.2188ZM313.519 39.9512C313.845 39.9512 314.105 39.707 314.3 39.2188H314.154C313.731 39.4466 313.519 39.6908 313.519 39.9512ZM310.101 40.4395L309.076 40.3418H308.88C308.587 40.3418 308.425 40.4069 308.392 40.5371V40.6348L308.587 40.7812H309.466C310.475 40.7812 311.664 40.6022 313.031 40.2441C312.966 40.0488 312.77 39.9512 312.445 39.9512H312.201C311.419 39.9512 310.72 40.1139 310.101 40.4395Z" fill="#809A6F"/>
</svg>
